<?xml version="1.0" encoding="UTF-8"?>
<svg width="22px" height="31px" viewBox="0 0 22 31" version="1.1" xmlns="http://www.w3.org/2000/svg" xmlns:xlink="http://www.w3.org/1999/xlink">
    <!-- Generator: sketchtool 51.3 (57544) - http://www.bohemiancoding.com/sketch -->
    <title>40B3F4F8-09F2-4661-9618-6B8FC775FD8B</title>
    <desc>Created with sketchtool.</desc>
    <defs>
        <polygon id="path-1" points="1.27906977e-05 0.0474839288 21.9424419 0.0474839288 21.9424419 24.1420718 1.27906977e-05 24.1420718"></polygon>
    </defs>
    <g id="Pagina-de-Marcas-casuisticas" stroke="none" stroke-width="1" fill="none" fill-rule="evenodd">
        <g id="Desktop-HD-Listado-Marcas-Sin-logo" transform="translate(-1310.000000, -50.000000)">
            <g id="Header">
                <g id="Carrito">
                    <g transform="translate(1284.000000, 40.000000)">
                        <g id="cart" transform="translate(26.000000, 10.000000)">
                            <g id="Group-3" transform="translate(0.000000, 6.518519)">
                                <mask id="mask-2" fill="white">
                                    <use xlink:href="#path-1"></use>
                                </mask>
                                <g id="Clip-2"></g>
                                <path d="M2.05291977,20.8395042 C2.05291977,21.4429881 2.53257093,21.96523 3.07617558,21.96523 L18.8662279,21.96523 C19.4162919,21.96523 19.8894837,21.5176522 19.8894837,20.8395042 L18.5912919,2.37353185 L3.35117558,2.37353185 L2.05291977,20.8395042 Z M18.8726872,24.1420853 L3.07617558,24.1420853 C1.36861744,24.1420853 1.27906977e-05,22.6433781 1.27906977e-05,20.7648401 L1.27906977e-05,20.6903116 L1.36861744,1.09861346 C1.43896628,0.495061664 1.8482686,0.0474839288 2.39187326,0.0474839288 L19.5505942,0.0474839288 C20.1005942,0.0474839288 20.5098965,0.495061664 20.57385,1.09861346 L21.9424547,20.6903116 L21.9424547,20.7648401 C21.94885,22.6433781 20.5802453,24.1420853 18.8726872,24.1420853 Z" id="Fill-1" fill="#616161" mask="url(#mask-2)"></path>
                            </g>
                            <path d="M14.7403509,8.96296296 C14.2485458,8.96296296 13.8254711,8.43994434 13.8254711,7.84527933 L13.8254711,5.97530864 C13.8254711,3.88323415 12.4817414,2.2425319 10.7720598,2.2425319 C9.06237817,2.2425319 7.71864847,3.88323415 7.71864847,5.97530864 L7.71864847,7.83811469 C7.71864847,8.43994434 7.28979857,8.95579832 6.80376868,8.95579832 C6.31773879,8.95579832 5.88888889,8.4327797 5.88888889,7.83811469 L5.88888889,5.97530864 C5.88888889,2.69390414 8.09031839,0 10.7777778,0 C13.4652372,0 15.6666667,2.6867395 15.6666667,5.97530864 L15.6666667,7.83811469 C15.6609487,8.43994434 15.2320988,8.96296296 14.7403509,8.96296296" id="Fill-4" fill="#616161"></path>
                        </g>
                    </g>
                </g>
            </g>
        </g>
    </g>
</svg>