<?xml version="1.0" encoding="UTF-8"?>
<svg width="18px" height="16px" viewBox="0 0 18 16" version="1.1" xmlns="http://www.w3.org/2000/svg" xmlns:xlink="http://www.w3.org/1999/xlink">
    <!-- Generator: sketchtool 51.3 (57544) - http://www.bohemiancoding.com/sketch -->
    <title>4A6574F4-F626-4CCA-81DD-52EAECDE9AE8</title>
    <desc>Created with sketchtool.</desc>
    <defs></defs>
    <g id="Screens" stroke="none" stroke-width="1" fill="none" fill-rule="evenodd">
        <g id="Mobile-Home-Full-Ideal-ordination-2" transform="translate(-79.000000, -3.000000)" fill="#FFFFFF" fill-rule="nonzero">
            <g id="Header-Busca-New">
                <g id="free-shipping" transform="translate(79.000000, 3.000000)">
                    <g id="delivery-box">
                        <path d="M17.989875,3.456 C17.9865,3.422 17.978625,3.39 17.967375,3.357 C17.956125,3.324 17.942625,3.294 17.924625,3.264 C17.91675,3.251 17.915625,3.235 17.9055,3.222 L15.6555,0.222 C15.550875,0.084 15.375375,0 15.1875,0 L2.8125,0 C2.624625,0 2.449125,0.084 2.3445,0.223 L0.0945,3.223 C0.084375,3.236 0.08325,3.251 0.075375,3.265 C0.057375,3.295 0.043875,3.325 0.032625,3.358 C0.021375,3.391 0.0135,3.423 0.010125,3.457 C0.007875,3.471 0,3.484 0,3.5 L0,15 C0,15.552 0.505125,16 1.125,16 L16.875,16 C17.494875,16 18,15.552 18,15 L18,3.5 C18,3.484 17.992125,3.471 17.989875,3.456 Z M14.886,1 L16.38675,3 L11.1645,3 L10.78875,1 L14.886,1 Z M8.350875,1 L9.648,1 L10.02375,3 L7.97625,3 L8.350875,1 Z M7.875,4 L10.125,4 L10.125,5.807 L9.17775,5.525 C9.061875,5.492 8.937,5.492 8.82225,5.525 L7.875,5.807 L7.875,4 Z M3.114,1 L7.21125,1 L6.8355,3 L1.61325,3 L3.114,1 Z M16.875,15.5 L16.875,15 L1.125,15 L1.125,4 L6.75,4 L6.75,6.5 C6.75,6.661 6.836625,6.812 6.984,6.905 C7.13025,7 7.318125,7.022 7.49025,6.975 L9,6.527 L10.50975,6.974 C10.56825,6.991 10.627875,7 10.6875,7 C10.8045,7 10.91925,6.968 11.016,6.905 C11.163375,6.812 11.25,6.661 11.25,6.5 L11.25,4 L16.875,4 L16.875,15 C16.875,15 16.875,15 16.876125,15 L16.875,15.5 Z" id="Shape"></path>
                        <path d="M14.0717614,6.13045071 C13.8341099,5.95711019 13.4477739,5.95622126 13.2089037,6.12956179 L7.64054676,10.1901748 L5.61624365,7.97586064 C5.42977865,7.77140771 5.050755,7.71629431 4.77166686,7.85229996 C4.49135999,7.9883056 4.415799,8.26476152 4.60226401,8.46832553 L7.03971507,11.1351029 C7.14086929,11.2462186 7.30539724,11.3173327 7.48698734,11.3315555 C7.50648695,11.3324444 7.52720529,11.3333333 7.54670489,11.3333333 C7.70757666,11.3333333 7.86235481,11.2871092 7.97813373,11.2035502 L14.0717614,6.75892124 C14.3094129,6.58558072 14.3094129,6.30379124 14.0717614,6.13045071 Z" id="Shape"></path>
                    </g>
                </g>
            </g>
        </g>
    </g>
</svg>