<?xml version="1.0" encoding="UTF-8"?>
<svg width="21px" height="20px" viewBox="0 0 21 20" version="1.1" xmlns="http://www.w3.org/2000/svg" xmlns:xlink="http://www.w3.org/1999/xlink">
    <!-- Generator: sketchtool 49.2 (51160) - http://www.bohemiancoding.com/sketch -->
    <title>A25491A1-3028-4802-9EA0-75BF8CC47FA3</title>
    <desc>Created with sketchtool.</desc>
    <defs></defs>
    <g id="Page-1" stroke="none" stroke-width="1" fill="none" fill-rule="evenodd">
        <g id="Desktop-HD-Ficha-de-producto" transform="translate(-438.000000, -834.000000)" fill="#5CB8A3" fill-rule="nonzero">
            <g id="Bloque-1" transform="translate(0.000000, 292.000000)">
                <g id="DEV" transform="translate(438.000000, 542.000000)">
                    <g id="devolucion">
                        <path d="M20.3830982,1.60908632 C19.9616655,1.52672211 19.5470976,1.77125684 19.4568575,2.15494105 L18.8899548,4.56453474 C17.0850274,1.75994526 13.7721039,0 10.1410932,0 C4.54926323,0 0,4.14356211 0,9.23684211 C0,9.62922316 0.349228048,9.94736842 0.780084096,9.94736842 C1.21087774,9.94736842 1.56016819,9.62922316 1.56016819,9.23684211 C1.56016819,4.92718737 5.40953997,1.42105263 10.1410932,1.42105263 C13.2257954,1.42105263 16.0394651,2.92185474 17.5628133,5.31149684 L14.9620754,4.80384 C14.5407051,4.72158947 14.1260748,4.96606737 14.0358971,5.34975158 C13.945657,5.73343579 14.2140059,6.11120842 14.6352513,6.19340211 L19.099579,7.06479158 C19.1754032,7.07962737 19.2524131,7.08389053 19.3283621,7.07809263 C19.4548605,7.06837263 19.5781762,7.03057263 19.6867639,6.96656842 C19.8605042,6.86419579 19.982447,6.70316211 20.0258196,6.51893684 L20.9825772,2.45268 C21.0726925,2.06905263 20.8043436,1.69139368 20.3830982,1.60908632 Z" id="Shape"></path>
                        <path d="M20.1850329,8.84259538 C19.7524337,8.85659912 19.4132017,9.21148327 19.4274983,9.63521912 C19.5034963,11.8898206 18.6786798,14.0383499 17.1047938,15.6853244 C15.5309705,17.3321146 13.3966307,18.2801921 11.0949322,18.354633 C10.9989941,18.357704 10.9035577,18.3592395 10.8079958,18.3592395 C7.80469535,18.3591166 5.03804209,16.8312968 3.47556837,14.3558908 L6.199896,15.0714325 C6.61801041,15.1811899 7.04785058,14.9382742 7.15996644,14.5286649 C7.2720823,14.1191171 7.02402283,13.6981451 6.60590842,13.5882035 L2.17494914,12.4245422 C1.97416894,12.3719054 1.76015807,12.3994215 1.58019581,12.5011328 C1.40010814,12.6028442 1.26874196,12.7705819 1.2148787,12.9672484 L0.0269396661,17.3075466 C-0.0851761949,17.7170945 0.162883283,18.1380664 0.58099769,18.2479466 C0.649032203,18.2658198 0.71725483,18.2744186 0.784474183,18.2744186 C1.13047828,18.2744186 1.44719931,18.0481477 1.54106813,17.7052405 L2.20880963,15.2658265 C4.0663713,18.1308803 7.29973504,19.8948597 10.8076196,19.8947368 C10.9202998,19.8947368 11.0336071,19.8929557 11.1467262,19.8892705 C13.8669153,19.8011943 16.3893341,18.6808955 18.2493412,16.7346219 C20.1093484,14.7883483 21.0841544,12.2490656 20.9942987,9.58454771 C20.9800647,9.16087328 20.6175693,8.82754751 20.1850329,8.84259538 Z" id="Shape"></path>
                    </g>
                </g>
            </g>
        </g>
    </g>
</svg>