<?xml version="1.0" encoding="UTF-8"?>
<svg width="20px" height="17px" viewBox="0 0 20 17" version="1.1" xmlns="http://www.w3.org/2000/svg" xmlns:xlink="http://www.w3.org/1999/xlink">
    <!-- Generator: sketchtool 52.5 (67469) - http://www.bohemiancoding.com/sketch -->
    <title>533A269E-FF81-4D95-ADC4-B8234D245100</title>
    <desc>Created with sketchtool.</desc>
    <g id="Screens" stroke="none" stroke-width="1" fill="none" fill-rule="evenodd">
        <g id="Desktop-HD-Home-Full-Ideal-2" transform="translate(-1047.000000, -65.000000)" fill="#808080" fill-rule="nonzero">
            <g id="Header">
                <g id="Favoritos">
                    <g transform="translate(1047.000000, 65.000000)">
                        <g id="favoritos">
                            <path d="M18.3431641,1.57104354 C16.1682031,-0.523602106 12.6280859,-0.523602106 10.4524219,1.57056914 L10.0000391,2.00543819 L9.548125,1.5707668 C7.37222656,-0.523681173 3.83257812,-0.523443972 1.65667969,1.5707668 C0.588320312,2.59919259 0,3.96329775 0,5.41141171 C0,6.86000007 0.588320312,8.22386803 1.65683594,9.25272869 L9.51695312,16.8049415 C9.65214844,16.935165 9.82621094,17 10,17 C10.1737891,17 10.3476172,16.9348882 10.4830469,16.8047043 L18.3431641,9.25272869 C19.4114453,8.22410524 20,6.86003961 20,5.41164891 C20,3.96329775 19.4114453,2.59942979 18.3431641,1.57104354 Z M17.3761328,8.22291923 L10,15.3104151 L2.62410156,8.22315643 C1.83695313,7.46561453 1.40351563,6.46703658 1.40351563,5.41164891 C1.40351563,4.35626125 1.83695313,3.35768329 2.62410156,2.60014139 C3.44515625,1.80943085 4.52351562,1.41433254 5.60210937,1.41433254 C6.6809375,1.41433254 7.75976562,1.80990525 8.58082031,2.6006158 L9.51648437,3.50000407 C9.78734375,3.76064877 10.2123828,3.76064877 10.4832812,3.50000407 L11.4191797,2.60014139 C13.0615234,1.01895751 15.7335547,1.01895751 17.3758984,2.60014139 C18.1628125,3.35772283 18.5964844,4.35626125 18.5964844,5.41164891 C18.5964844,6.46703658 18.1628125,7.46537733 17.3761328,8.22291923 Z" id="Shape"></path>
                        </g>
                    </g>
                </g>
            </g>
        </g>
    </g>
</svg>