<?xml version="1.0" encoding="UTF-8"?>
<svg width="21px" height="20px" viewBox="0 0 21 20" version="1.1" xmlns="http://www.w3.org/2000/svg" xmlns:xlink="http://www.w3.org/1999/xlink">
    <!-- Generator: sketchtool 51.3 (57544) - http://www.bohemiancoding.com/sketch -->
    <title>5A80BA15-BC94-403C-B673-B128DDAC09AB</title>
    <desc>Created with sketchtool.</desc>
    <defs>
        <path d="M0.52594496,5.91134694 C0.52594496,8.8324898 2.94156167,11.2305306 5.91967838,11.2305306 C8.89779509,11.2305306 11.3141578,8.84865306 11.3141578,5.91134694 C11.3141578,2.97330612 8.89779509,0.607591837 5.91967838,0.607591837 C2.94156167,0.607591837 0.52594496,2.98946939 0.52594496,5.91134694 Z M1.94860743,5.91134694 C1.94860743,3.7564898 3.73532825,1.99395918 5.91967838,1.99395918 C8.10402851,1.99395918 9.89074934,3.7564898 9.89074934,5.91134694 C9.89074934,8.06546939 8.10402851,9.82726531 5.91967838,9.82726531 C3.73607427,9.82726531 1.94860743,8.06546939 1.94860743,5.91134694 Z" id="path-1"></path>
        <path d="M7.27758621,0.303771429 C3.64096552,0.303771429 0.666931034,3.19405714 0.666931034,6.76457143 C0.666931034,7.14308571 0.973965517,7.44342857 1.36137931,7.44342857 L19.6581724,7.44342857 C20.0455862,7.44342857 20.3526207,7.14308571 20.3526207,6.76457143 C20.3526207,3.21051429 17.3945172,0.303771429 13.7426897,0.303771429 L7.27758621,0.303771429 Z M7.27758621,1.66217143 L13.7426897,1.66217143 C16.3930345,1.66217143 18.5748621,3.58971429 18.9144828,6.08502857 L2.10506897,6.08502857 C2.44468966,3.60548571 4.62651724,1.66217143 7.27758621,1.66217143 Z" id="path-3"></path>
    </defs>
    <g id="Screens" stroke="none" stroke-width="1" fill="none" fill-rule="evenodd">
        <g id="Mobile-Home-Full-Ideal-ordination-2" transform="translate(-250.000000, -43.000000)">
            <g id="Header-Busca-New">
                <g id="icono-cuenta" transform="translate(250.000000, 43.000000)">
                    <g id="Group-3" transform="translate(4.038462, 0.000000)">
                        <mask id="mask-2" fill="white">
                            <use xlink:href="#path-1"></use>
                        </mask>
                        <g id="Clip-2"></g>
                        <polygon id="Fill-1" fill="#616161" mask="url(#mask-2)" points="-1.63154841 13.356 13.4709052 13.356 13.4709052 -1.51714286 -1.63154841 -1.51714286"></polygon>
                    </g>
                    <g id="Group-6" transform="translate(0.000000, 12.000000)">
                        <mask id="mask-4" fill="white">
                            <use xlink:href="#path-3"></use>
                        </mask>
                        <g id="Clip-5"></g>
                        <polygon id="Fill-4" fill="#616161" mask="url(#mask-4)" points="-1.42727586 9.42651429 22.4468276 9.42651429 22.4468276 -1.67931429 -1.42727586 -1.67931429"></polygon>
                    </g>
                </g>
            </g>
        </g>
    </g>
</svg>