<?xml version="1.0" encoding="UTF-8"?>
<svg width="163px" height="40px" viewBox="0 0 163 40" version="1.1" xmlns="http://www.w3.org/2000/svg" xmlns:xlink="http://www.w3.org/1999/xlink">
    <!-- Generator: sketchtool 51.3 (57544) - http://www.bohemiancoding.com/sketch -->
    <title>8DC43608-B435-4709-8E3B-281CF96A3A69-502-00000339ADAC0A1D</title>
    <desc>Created with sketchtool.</desc>
    <defs>
        <polygon id="path-1" points="0.0752708644 0.0125921854 134.375097 0.0125921854 134.375097 30.5460619 0.0752708644 30.5460619"></polygon>
    </defs>
    <g id="Screens" stroke="none" stroke-width="1" fill="none" fill-rule="evenodd">
        <g id="Desktop-HD-Mi-cuenta-Mis-pedidos" transform="translate(-38.000000, -46.000000)">
            <g id="Header">
                <g transform="translate(0.000000, -1.000000)" id="logo_naturitas">
                    <g transform="translate(38.000000, 47.000000)">
                        <path d="M28.3743776,1.05730447 C28.0983946,0.544322037 27.3460785,-0.665697205 26.0448072,0.472754115 C22.0524049,3.37836436 11.4209915,12.4780756 15.5065438,24.5225778 C15.7809758,25.3737305 16.4457071,25.1519173 16.6475169,25.0012771 C19.9221809,22.6861417 23.2263135,14.6765379 24.2757788,11.1558859 C24.4981162,10.4103472 24.8062136,10.0818141 24.9000935,10.9887361 C25.1377582,13.2844391 24.7688989,18.4307731 19.1992422,26.1508665 C19.0451479,26.3643063 19.0534502,26.7255427 19.6061461,26.5587088 C23.4751087,25.390635 38.3288343,19.562036 28.3743776,1.05730447" id="Fill-1" fill="#5CB8A3"></path>
                        <path d="M16.9801613,8.83104879 C17.0979119,8.62807251 17.3260364,8.19147197 16.9741677,7.81571109 C16.861212,7.69623723 16.7445679,7.57683941 16.6240511,7.4577458 C14.0153729,4.87875306 9.61858243,2.40006969 2.81643412,0.152044649 C2.20453676,-0.133597505 1.63265801,-0.0648487016 1.32836909,0.776259452 C0.255612329,4.15894396 -2.5033661,15.3553407 5.61266489,21.4193046 C8.28247744,23.4140846 11.4321444,24.4049343 12.9596748,24.7985669 C13.8212735,25.0717369 13.9222421,24.6297368 13.9293422,24.4255438 C14.0754008,20.1721678 10.6487387,12.0973014 7.71945073,7.73296916 C7.23028324,7.00403411 6.89925378,6.27738055 7.79847364,7.04791471 C9.3625187,8.38813614 11.8716114,10.8933608 13.8808403,14.5611551 C14.0285588,14.8308269 14.432802,14.815617 14.5038028,14.533321 C14.9540581,12.7409849 15.7238169,11.0595291 16.6897959,9.33944011 C16.7847709,9.17038193 16.8815901,9.00094351 16.9801613,8.83104879" id="Fill-3" fill="#5CB8A3"></path>
                        <path d="M116.175545,22.682595 C116.443891,23.0052405 116.816641,23.1689751 117.283604,23.1689751 C117.740748,23.1689751 118.16191,23.0126546 118.535778,22.7046585 C118.923568,22.3850501 119.162767,21.9793314 119.247161,21.4990256 C119.33578,21.006214 119.228206,20.564497 118.935935,20.2211279 C118.662058,19.8997329 118.286636,19.7365343 117.820294,19.7365343 C117.362591,19.7365343 116.944102,19.8928548 116.576572,20.2016548 C116.195681,20.5207272 115.959713,20.9200144 115.875444,21.3895119 C115.787197,21.8926852 115.890856,22.3395832 116.175545,22.682595" id="Fill-5" fill="#5CB8A3"></path>
                        <g id="Group-9" transform="translate(28.317636, 9.439212)">
                            <mask id="mask-2" fill="white">
                                <use xlink:href="#path-1"></use>
                            </mask>
                            <g id="Clip-8"></g>
                            <path d="M130.053309,16.7638323 C129.850284,16.3220457 129.850284,16.3220457 129.795683,16.1072536 C129.695982,15.7154882 129.674319,15.3543497 129.731659,15.0338585 C129.786743,14.7251655 129.907302,14.4848375 130.100098,14.3002682 C130.279607,14.1262041 130.523623,14.0377175 130.823448,14.0377175 C131.271858,14.0377175 131.446132,14.1418004 131.513619,14.2240646 L131.514102,14.2240646 C131.612433,14.3467337 131.63007,14.5370405 131.566046,14.7898133 C131.491955,15.0895364 130.366342,17.3826729 130.053309,16.7638323 M4.24524023,18.1717795 C4.19659812,17.8599349 4.19152452,17.8272878 4.19152452,17.8272878 C4.1619688,17.6382739 4.13780881,17.4515227 4.11936669,17.2686504 C4.06742271,16.7563978 4.07587871,16.2965099 4.14449307,15.9020778 C4.20916131,15.52704 4.33447112,15.2242461 4.51639584,15.0012114 C4.68076429,14.8005609 4.90287512,14.7031853 5.19585526,14.7031853 C5.52169297,14.7031853 5.71465075,14.7806818 5.76893019,14.9334929 C5.84173229,15.1384262 5.81837764,15.4275633 5.69926889,15.7935504 C5.56977135,16.1925078 5.34830479,16.6625778 5.04123133,17.1907499 C4.90247246,17.4297849 4.75735146,17.6706786 4.60619046,17.9128652 L4.42346041,18.2054771 C4.42346041,18.2054771 4.29412394,18.4833816 4.24524023,18.1717795 M133.606599,21.7792047 L133.098675,21.0155532 C132.899436,20.7158301 132.682399,20.3926721 132.446758,20.0474531 C132.210312,19.7012644 131.959693,19.3492574 131.696107,18.9928867 C131.554047,18.8010445 131.413274,18.6130812 131.273469,18.4290775 C130.994582,18.0555752 131.236665,17.7850243 131.296501,17.6958912 C131.632083,17.1950328 131.938513,16.7156697 132.209668,16.26758 C132.587047,15.6424363 132.822204,15.113456 132.927542,14.6500125 C133.073227,14.011616 132.858847,13.6229214 132.653246,13.4085333 C132.362037,13.1062242 131.834383,12.9588274 131.040727,12.9588274 C130.137627,12.9588274 129.363702,13.0536171 128.739488,13.2403683 C128.109396,13.4289781 127.587057,13.6848216 127.188256,13.9997369 C126.784059,14.3178847 126.475134,14.6867809 126.270982,15.0966476 C126.069326,15.5007769 125.943694,15.9196943 125.896824,16.3415209 C125.849229,16.756317 125.849229,17.1716788 125.896421,17.5762929 C125.942245,17.9804221 126.0231,18.3470557 126.135605,18.6656883 C126.251654,19.0147053 126.424478,19.3620254 126.651341,19.7029614 C127.2311,20.6061713 124.607728,23.5390781 124.298963,23.7576683 C124.07202,23.9377931 123.787013,24.1069278 123.461095,24.2526277 C123.14476,24.3947719 122.829311,24.4641874 122.497111,24.4641874 C122.076002,24.4641874 121.739132,24.3000629 121.466043,23.9626825 C121.166862,23.59516 120.909639,23.1313124 120.702346,22.5836652 C120.490624,22.0258359 120.316269,21.4064297 120.183953,20.7428205 C120.048496,20.0615948 119.916099,19.43435 119.789984,18.8618942 C119.662017,18.2840241 119.52205,17.7883375 119.374271,17.3888952 C119.193313,16.9037139 118.930533,16.6576484 118.593421,16.6576484 C118.273542,16.6576484 117.985072,16.8736527 117.734936,17.2995197 C117.523053,17.660335 117.295465,18.1167481 117.058939,18.6559103 C116.823379,19.1916785 116.570505,19.7720537 116.298705,20.3980864 C116.034072,21.0098157 115.726113,21.5836453 115.38288,22.1037364 C115.045687,22.6159891 114.655826,23.0516341 114.224328,23.3986309 C113.809662,23.7311627 113.332744,23.8927013 112.76579,23.8927013 C112.484728,23.8927013 112.203265,23.7903962 111.905855,23.5805335 C111.610137,23.3724485 111.377396,23.0547048 111.213591,22.6357874 C111.045921,22.2077385 110.982863,21.6734249 111.025626,21.0479579 C111.06855,20.4175615 111.293963,19.6707184 111.696791,18.8281966 C111.957074,18.2716603 112.306508,17.7303162 112.734945,17.2211343 C113.16596,16.7093666 113.641106,16.2592566 114.147097,15.8833299 C114.652282,15.5069992 115.182594,15.205175 115.723455,14.9869081 C116.252962,14.7721967 116.762979,14.6632653 117.238045,14.6632653 C117.75378,14.6632653 118.155803,14.7056904 118.432837,14.7894092 C118.724448,14.8778958 118.956948,14.9616146 119.124618,15.0382222 C119.322247,15.1271937 119.47671,15.1816594 119.596624,15.2033164 L119.692056,15.2112358 C119.771381,15.2104277 119.933334,15.1806897 120.185242,14.925816 C120.265131,14.831511 120.434814,14.5450407 120.050107,14.1771142 C119.842411,13.9788072 119.525271,13.8150868 119.080405,13.6760133 C118.659136,13.544536 118.131079,13.4546756 117.512019,13.40821 C116.888692,13.3625525 116.204803,13.4046544 115.49007,13.5338691 C114.992696,13.6245376 114.480505,13.7657929 113.95881,13.9549684 C113.958407,13.95513 113.958649,13.9546451 113.958246,13.9548067 C113.955347,13.9558573 113.95285,13.9570694 113.950193,13.9580391 C113.626046,14.0759405 113.298356,14.2122664 112.968331,14.3670978 C112.831022,14.4315031 112.69331,14.5030197 112.555276,14.5780111 C109.8438,15.9761803 107.915994,18.1288695 106.793763,19.6412228 C105.755608,20.8490044 104.833421,21.9407433 103.769979,22.6237468 C103.559143,22.7451229 103.334696,22.8300539 103.098814,22.8619737 C103.009261,22.8742568 102.911736,22.8812873 102.807364,22.8812873 C102.363304,22.8812873 101.503691,22.7477088 100.736451,21.8525799 C100.535359,21.617747 100.334992,21.3201249 100.150007,20.9448447 C99.3640022,18.6816078 99.1814332,15.0618995 99.7633668,11.2123684 C99.9133198,10.290249 100.287961,8.66726728 100.381379,8.29732053 C100.474798,7.92737378 100.888659,7.91848471 101.004143,7.91735338 C102.9396,7.90046415 104.343698,7.87848392 104.793799,7.85795826 C105.631587,7.81682613 106.087808,7.46401103 106.082009,7.23548123 C106.076211,7.00177962 105.462144,6.39619182 102.724093,6.39619182 C102.267066,6.39619182 101.766794,6.41380833 101.238173,6.44799083 L101.053349,6.45283941 C101.053349,6.45283941 100.804099,6.41865691 100.804099,6.17840971 C101.081536,4.25748263 102.504076,-6.45190202 97.7617118,6.16822769 C97.7294179,6.25461325 97.5382319,6.56354868 97.2141659,6.56354868 C93.5974155,6.72250134 93.0563929,7.8817163 93.209084,7.93286884 C93.2888119,7.95937441 93.3633858,7.96381895 94.1470553,7.95541474 C94.6394359,7.95048535 95.4034552,7.94248519 96.6167699,7.94038414 C96.6167699,7.94038414 96.9418828,7.97036453 96.8253511,8.25416815 C96.7089805,8.53805259 94.9954736,12.7357118 94.4458338,19.3159638 C94.2135758,22.2182438 90.8637933,24.0704826 90.0676412,24.0514923 C88.1142255,23.9453892 91.7499012,13.8700374 89.0128966,13.8340771 C88.3295716,13.8394105 87.4590066,14.1560229 86.8124853,14.8045206 C86.2002712,15.4189167 85.5627696,16.2025282 84.9168121,17.1334558 C84.8725993,17.1972955 84.7774895,17.3517228 84.6410661,17.5727373 C82.957598,20.3010339 80.9048043,23.3212152 79.3623501,23.3220233 L79.3619474,23.3220233 C78.1512904,23.3220233 78.0876691,21.3426708 78.0665694,20.6923953 C78.0485299,19.9389257 78.0348393,19.2092951 78.0259806,18.5030992 C78.0167193,17.8011863 77.9986798,17.1529309 77.9717817,16.5778084 C77.9426286,15.9674528 77.8559748,15.5353634 77.7065855,15.2568932 C77.5472907,14.9837565 77.186421,14.7968437 76.6062591,14.6928416 C76.0958391,14.6012034 75.5085903,14.5317879 74.8613442,14.4860496 L72.9647045,14.3502894 C72.5737959,14.3213595 72.1473721,14.2564693 71.9495018,14.2263273 C71.7516315,14.1961853 71.7668523,13.9796961 71.7668523,13.9796961 C71.7743419,13.9079371 71.7778853,13.8394105 71.7778853,13.7733082 L71.7774827,13.5510816 C71.7981797,13.1182649 71.6530587,12.7387018 71.3587901,12.4430191 C71.0631523,12.1468516 70.6811024,11.996384 70.2235927,11.996384 C69.7347556,11.996384 69.2918225,12.171741 68.9070344,12.51696 C68.5284474,12.8573304 68.2852368,13.2784297 68.1842481,13.7680556 C68.1232844,14.1128705 68.1511489,14.4268161 68.2680027,14.6938113 C68.3769642,14.9425436 68.5402052,15.1524063 68.7532158,15.3166924 C68.8845656,15.4502708 69.0606114,15.5428787 69.3169489,15.6225571 C69.4029584,15.6486586 69.4917061,15.6770228 69.580776,15.7061143 C69.580776,15.7061143 69.8151278,15.8345209 69.6822479,16.0794551 C69.549529,16.32447 68.4186805,18.409764 68.4186805,18.409764 C67.6441918,19.813994 66.1540842,22.1678185 64.8684507,22.1683842 C63.6677797,22.1683842 63.0569347,16.3382885 63.0546798,16.3157426 C62.9811529,15.5073225 62.8525412,14.8004801 62.6725493,14.2310951 C62.4593776,13.5577079 62.095045,13.2166103 61.5899402,13.2166103 C61.1501478,13.2166103 60.8466984,13.7141555 60.6566398,14.0882235 C60.4027183,14.5889204 60.1217377,15.2267512 59.8212679,15.9843421 C59.5232142,16.7368419 59.2018058,17.5535854 58.8588145,18.4331988 C58.5192861,19.3022262 58.1449674,20.1172727 57.7456833,20.8557924 C57.3501843,21.5872009 56.9111167,22.2015162 56.4410439,22.6823338 C55.993923,23.139555 55.5234475,23.3618625 55.0030413,23.3618625 C54.7701391,23.3618625 54.5792751,23.2418601 54.4032294,22.9842388 C54.2022988,22.690334 54.0352727,22.2936392 53.9069027,21.8039325 C53.7745864,21.2983871 53.6715844,20.7100926 53.6011983,20.0552917 C53.5301679,19.3975008 53.4941695,18.7055275 53.4941695,17.9989276 C53.4941695,17.2902266 53.5168799,16.5769195 53.5614953,15.8779157 C53.605386,15.187801 53.6821342,14.544475 53.7898072,13.9659585 C53.8310403,13.7184384 53.7975384,13.5205355 53.6898654,13.3828358 C53.5996681,13.2677628 53.4676741,13.2027918 53.2985541,13.1902663 C52.9934135,13.1673163 52.648892,13.2997634 52.2442928,13.583567 C51.8646588,13.8499158 51.4784211,14.2416811 51.0961295,14.7473882 C50.7087644,15.2591559 50.4265757,15.8625619 50.2576169,16.5402319 C50.075209,17.2543471 49.9320208,18.0238169 49.8319179,18.8276309 C49.7976912,19.1014949 49.53475,20.5226949 49.4026754,20.8285596 C49.0128137,21.7313654 48.2195607,22.7810832 47.2284375,22.9147425 C47.139126,22.9271872 47.0413586,22.9341368 46.937068,22.9341368 C46.4930074,22.9341368 45.6333145,22.8004776 44.8660738,21.9053487 C43.8348449,20.7012843 42.816743,17.8684199 43.8238118,11.2083279 C43.9665974,10.3291185 44.1668031,9.37588743 44.4068729,8.42904032 C44.436026,8.31429056 44.438603,8.29231033 44.4959427,8.08511429 C44.5532824,7.87791825 44.8219415,7.91606042 44.8219415,7.91606042 C45.188368,7.91606042 45.6168051,7.9292324 46.0722209,7.94345491 C46.583849,7.95985927 47.1298647,7.97666769 47.6592906,7.97666769 C49.1619614,7.97666769 50.056042,7.81989689 50.3167283,7.5104766 C50.3805107,7.43475792 50.4008051,7.35330176 50.3826851,7.24566325 C50.2792803,6.62900453 49.5314481,6.36564576 47.8822873,6.36564576 C47.3920811,6.36564576 46.8699838,6.38649466 46.3173643,6.40815165 C46.0143175,6.42035392 45.707244,6.43255618 45.4005732,6.44152605 C45.363689,6.44249577 45.2388624,6.44435439 45.28984,6.44435439 C45.3195567,6.44435439 45.0121612,6.5178104 45.0641051,6.19206655 C45.066199,6.17881376 45.0777958,6.00103245 45.103647,5.90163653 C45.7064387,3.39322302 47.8477385,-6.28478758 41.7243893,6.42633383 C41.7243893,6.42633383 41.6938672,6.55320504 41.5532561,6.55320504 C41.4125644,6.55320504 41.4125644,6.55401314 41.4125644,6.55401314 C37.1604064,6.68023787 36.7080509,7.82296766 36.8640438,7.87517072 C37.0129499,7.92486868 37.5218398,7.93820228 39.3384294,7.93820228 C39.3384294,7.93820228 40.5721189,7.93707094 40.7979343,7.93577799 C41.0237497,7.93448503 40.8859572,8.25020848 40.8859572,8.25020848 C40.3253649,9.59609382 39.841843,11.0494561 39.4484379,12.5714257 C38.7713944,15.1924071 38.5202916,17.6435266 38.6940019,19.777872 C38.6898947,20.3513784 38.5896308,22.4376421 36.8460044,23.7885376 C36.1261978,24.2809919 36.1934431,24.2611935 35.9046507,24.3950951 C35.7683078,24.4582075 35.6392935,24.503865 35.5200237,24.52932 C34.546215,24.7114651 34.0892691,23.3600847 33.8821375,22.8138112 C33.6708181,22.2577597 33.4965441,21.6388383 33.3639057,20.9735322 C33.2278045,20.2921449 33.0962936,19.6652233 32.9696952,19.0923634 C32.8424526,18.5169177 32.7025663,18.0215543 32.5543045,17.6200109 C32.3736683,17.1344255 32.1109687,16.8881984 31.7734537,16.8881984 C31.453817,16.8881984 31.1650246,17.1043643 30.9148882,17.5300698 C30.702683,17.8913699 30.4750153,18.3478638 30.2385696,18.8867028 C30.0034123,19.4222286 29.7501351,20.0026038 29.4789795,20.6286364 C29.2137028,21.2408506 28.9051798,21.8150842 28.5625106,22.3347713 C28.2253982,22.847428 27.8353755,23.282669 27.4039586,23.6291809 C26.9896148,23.961632 26.5126161,24.1232513 25.9455812,24.1232513 C25.6689493,24.1232513 25.3795126,24.0183604 25.0857271,23.8112451 C24.7856601,23.5996854 24.5593615,23.2906691 24.3939461,22.8664991 C24.2262758,22.4380461 24.1629766,21.9036517 24.2054982,21.2784271 C24.248503,20.6477883 24.4743989,19.9007836 24.8769848,19.0591507 C25.1375101,18.501483 25.486944,17.9600581 25.9146564,17.451846 C26.3452679,16.9408863 26.8204143,16.4906147 27.3269688,16.1140416 C27.8327984,15.737226 28.3632712,15.4357251 28.9034886,15.2174581 C29.4329145,15.0027468 29.9426902,14.8938153 30.4180783,14.8938153 C30.933894,14.8938153 31.3357552,14.936402 31.6126287,15.0201209 C31.9017432,15.1077186 32.4580672,15.4110781 32.8443854,15.451887 C33.4545862,15.496898 33.6142837,14.7752675 33.2298178,14.4078259 C33.0224446,14.2095189 32.7052239,14.0456368 32.2602774,13.9068058 C31.8391688,13.7752476 31.3111925,13.6852256 30.6920526,13.6387601 C30.0708992,13.5932642 29.3853193,13.6361742 28.6692172,13.7645807 C22.3080532,15.1616186 20.0831599,20.2437399 19.8071722,21.0472306 C19.4652279,22.2659215 15.3422452,26.1707264 15.0148774,21.911571 C14.8989094,21.0792312 14.8220001,20.1580816 14.7868071,19.1739004 C14.7501644,18.1733957 14.6906503,17.2402054 14.6097144,16.3998655 C14.527651,15.5477273 14.3921939,14.8177734 14.2068868,14.2310951 C13.9937957,13.5577079 13.6296242,13.2166103 13.1241167,13.2166103 C12.7251547,13.2166103 12.304932,13.4878884 11.8394495,14.0460409 C11.4183409,14.5511822 10.9782265,15.187801 10.5313472,15.9381189 C10.0903469,16.6780124 9.6454004,17.4973418 9.20866834,18.3735613 C8.7756408,19.2425078 8.36492099,20.0486653 7.97731424,20.7906598 C7.59260668,21.526432 7.24800471,22.1497172 6.95325285,22.6424138 C6.8428417,22.827468 6.22821158,23.5884528 5.52918257,22.1195751 C5.32551386,21.746396 5.12434169,21.3109126 4.93090071,20.8247615 C4.8138053,20.5319072 4.70146135,20.2253961 4.5951574,19.909511 C4.4493116,19.458997 5.37769944,17.9325828 5.71577822,17.3521268 C6.13004149,16.6415672 6.42060562,15.9825642 6.57941728,15.3918454 C6.74708761,14.7681563 6.72767908,14.2466913 6.52159438,13.8428853 C6.30012781,13.4094222 5.79478138,13.1896198 5.01932627,13.1896198 C4.41911161,13.1896198 3.87889426,13.2713184 3.41365341,13.4329378 C2.94978163,13.5944764 2.54035035,13.8124201 2.19687584,14.0802234 C1.85493146,14.3476226 1.56082387,14.6570429 1.32349224,15.0001609 C1.09010675,15.3375413 0.896263107,15.6884978 0.746873842,16.0444645 C0.393735338,16.8642787 0.177745038,17.7989236 0.103896005,18.8240753 C0.0314965721,20.404632 0.0965674754,21.839812 0.297578583,23.0851701 C0.388178541,23.6155241 0.51348835,24.1424032 0.669722944,24.6483527 C0.827165538,25.1610094 1.03566624,25.6315642 1.28958773,26.0463603 C1.55067667,26.4736011 1.87941359,26.8176079 2.26637607,27.0690069 C2.66388842,27.3284868 3.142981,27.4599642 3.69117115,27.4599642 C4.24902529,27.4599642 4.79858451,27.2416164 5.32422533,26.8104967 C5.8243371,26.402731 6.30254381,25.8901552 6.74596014,25.2872341 C7.18269221,24.6944142 7.60291495,24.0365426 7.99495103,23.3317205 C8.38360472,22.6336864 8.74101149,21.9899564 9.06596334,21.4002881 C9.39526399,20.8048015 9.67390919,20.3279436 9.91808614,19.9428854 C9.91808614,19.9428854 10.0775421,19.7009412 10.1753095,19.5373824 C10.2729964,19.3739852 10.3126993,19.5798075 10.3126993,19.5798075 L10.3912998,21.3007306 C10.4186006,21.8942777 10.4737659,22.5495635 10.5551851,23.2480824 C10.6382954,23.9604198 10.7879263,24.6266957 11.000051,25.227839 C11.2186989,25.8480533 11.5471942,26.3757406 11.9763561,26.796759 C12.4249266,27.2369294 13.0207119,27.4599642 13.747847,27.4599642 C14.3880062,27.4599642 15.0265547,27.3355172 15.6465,27.0908255 C16.2530768,26.8512248 16.8363795,26.5515016 17.3801403,26.2000603 C17.9188275,25.8521746 18.4294892,25.4655811 18.8985151,25.0507849 C19.115955,24.8581346 19.2242723,24.779426 19.5100044,24.4885919 C19.795656,24.1975963 19.8873834,24.6089176 19.8873834,24.6089176 C19.9548703,24.9538941 20.0596441,25.2747894 20.1988862,25.5634416 C20.4793837,26.1464027 20.9052437,26.6135635 21.4643864,26.9512672 C22.0214352,27.2890517 22.7264237,27.4599642 23.5602655,27.4599642 C24.3400694,27.4599642 25.1046525,27.233697 25.8325929,26.7874659 C26.5389505,26.3553765 27.1769352,25.8644577 27.7290715,25.3292551 C28.2775033,24.7970425 28.8466321,24.2101218 29.0788901,23.8498722 C29.3746889,23.3829538 29.4822814,23.90854 29.4822814,23.90854 C29.6142755,24.3305282 29.8119042,24.7895272 30.0695302,25.2726075 C30.3596916,25.8179921 30.7388424,26.317396 31.1968353,26.7574855 C31.6808404,27.2235958 32.5065483,27.5047327 33.2146775,27.5047327 C33.8548367,27.5047327 34.4934657,27.3803666 35.1133305,27.1355941 C36.5183144,26.519097 38.1495969,25.0485223 38.9255352,24.3663269 C39.522609,23.8359729 39.8564195,24.3997013 40.0647592,24.7334453 C41.0848744,26.3678212 42.6905473,27.4703886 44.3596804,27.4703886 C46.3232432,27.4703886 48.4038209,25.2145862 49.3483154,23.7048188 C50.0169028,22.7075464 50.2879779,27.4599642 53.4579295,27.4599642 C53.8725149,27.4599642 54.2817046,27.3549924 54.674385,27.148766 C55.0531331,26.9486005 55.4166604,26.6848376 55.754417,26.3647505 C56.0875027,26.049027 56.4101996,25.6878885 56.7139712,25.2907897 C57.0139578,24.8984587 57.2959048,24.4854404 57.5521618,24.0640178 C57.9020789,23.4995622 58.3138457,22.7448805 58.5460232,22.214769 C58.8919942,21.3947931 59.0380816,23.4039643 59.1017835,23.9675311 C59.1674181,24.5482295 59.3048884,25.0990283 59.5102483,25.6049778 C59.7226146,26.1278973 60.0457142,26.5701687 60.4708495,26.9190241 C60.8711805,27.2478387 61.4097872,27.4267514 62.0714488,27.4501862 L62.2024764,27.4551156 C67.0020193,27.0189857 69.840818,19.7184769 70.7845877,16.5619697 C70.8481284,16.3493594 71.0457571,16.0944857 71.6137585,16.2556202 C71.8555194,16.2910148 72.0968777,16.3317429 72.3367864,16.3760266 C72.5643735,16.4189366 72.7727131,16.4783317 72.9563291,16.5530806 C73.0423386,16.5889601 73.1950298,16.6642748 73.2682345,16.774984 C73.3392649,16.9068654 73.4066713,17.1862245 73.3860547,17.8740766 C72.9163845,25.5859875 74.7373229,27.4703886 76.4316629,27.4703886 C79.6509814,27.4703886 83.3261184,22.4701276 84.3951979,20.518816 C84.3951979,20.518816 85.0077342,19.4298247 84.8529492,20.5130786 C84.7191028,21.4562892 84.6250399,22.0816754 84.564801,22.5716245 C84.4625238,23.397742 84.4721877,24.1706866 84.5930682,24.8688823 C84.7174922,25.5885734 85.0047544,26.2032119 85.4476876,26.6954237 C85.9060026,27.2054136 86.6190444,27.4639238 87.5670018,27.4639238 C88.205953,27.4639238 88.8531991,27.3400426 89.4907006,27.0956741 C90.1145115,26.8565582 90.7198803,26.557724 91.2902977,26.2067675 C91.8577353,25.8577505 92.39151,25.4713994 92.8776895,25.0574921 C93.3528359,24.6527164 93.7807899,24.2645067 94.1497129,23.9040955 C94.3040147,23.7528197 94.4433373,23.6135038 94.5689692,23.484774 C95.2415833,22.8188214 95.5285234,23.5396438 95.6220226,23.7419912 C96.5804494,25.8162143 97.9905874,27.4063065 99.714161,27.4649744 C99.7276906,27.4661865 99.7876074,27.4695805 99.804922,27.4701462 L99.8102372,27.4701462 C101.675791,27.4701462 103.135054,26.2344852 104.203812,25.0085215 C104.494456,24.6578074 104.824884,24.0753312 105.648176,24.058846 C106.783132,24.0905234 106.834593,26.1442208 108.367625,26.9418124 C108.802585,27.1869082 109.32275,27.3349516 109.920226,27.3844071 C109.932145,27.3857001 109.943339,27.3877203 109.955419,27.3889324 C109.956547,27.3890941 109.956547,27.3876395 109.957433,27.3873971 C110.094903,27.3977407 110.234789,27.4048519 110.380313,27.4048519 C111.160117,27.4048519 111.924861,27.1785848 112.652399,26.7322729 C113.359642,26.2993754 113.997627,25.6335036 114.548958,25.0987051 C115.095215,24.5687552 115.395685,24.2409103 115.718785,23.8324173 C116.133692,23.3075584 116.631468,24.5576034 116.88998,25.0428656 C117.17982,25.5873613 117.557762,26.2846681 118.037821,26.6997874 C118.58585,27.1738171 119.112538,27.377215 119.884772,27.4424285 C121.395254,27.5698653 124.376919,27.6366949 127.258562,22.9042372 C127.936571,21.9605417 128.471071,22.3133568 128.706953,22.5919078 C128.833712,22.7856894 128.83041,22.7883561 128.949922,22.9860166 C129.293155,23.554432 129.511078,24.1761009 129.597571,24.8338109 C129.682292,25.4315602 129.666266,25.944136 129.548929,26.3558614 C129.430303,26.7738091 129.276645,27.1218564 129.092788,27.3905486 C128.909333,27.657463 128.722254,27.8636894 128.535981,28.002682 C128.333842,28.1520183 128.195486,28.2635357 128.110362,28.344911 C128.02693,28.4068921 127.905566,28.4791359 127.65551,28.5906533 C127.458687,28.6787359 127.244307,28.7217266 127.001177,28.7217266 L126.94424,28.7208377 C126.68605,28.7132416 126.43382,28.6199064 126.169107,28.4357411 C125.917843,28.259576 125.708054,27.9098317 125.54441,27.3958013 C125.503338,27.2058985 125.397437,27.0730474 125.232424,26.9903791 C125.118953,26.9336507 125.005723,26.9048016 124.895876,26.9048016 C124.856978,26.9048016 124.818644,26.9083572 124.779827,26.9153877 C124.621418,26.9446408 124.48725,27.0332082 124.390288,27.1717968 C124.276736,27.3343051 124.283742,27.5503094 124.411307,27.8323352 C124.619083,28.2865664 124.937753,28.7545353 125.356848,29.2219386 C125.784802,29.6991198 126.315597,30.0626018 126.934415,30.3016368 C127.556213,30.5411567 128.274892,30.6053196 129.079581,30.4911355 C129.880404,30.3779212 130.775531,29.9706403 131.740803,29.2816569 C132.707042,28.5915422 133.388273,27.8438102 133.765008,27.0601986 C134.13828,26.2837792 134.341707,25.5351582 134.369893,24.8357504 C134.39808,24.1380395 134.311668,23.5048956 134.113073,22.9541776 C133.913269,22.4017626 133.752686,22.0284218 133.606599,21.7792047" id="Fill-7" fill="#5CB8A3" mask="url(#mask-2)"></path>
                        </g>
                    </g>
                </g>
            </g>
        </g>
    </g>
</svg>