<?xml version="1.0" encoding="UTF-8"?>
<svg width="19px" height="20px" viewBox="0 0 19 20" version="1.1" xmlns="http://www.w3.org/2000/svg" xmlns:xlink="http://www.w3.org/1999/xlink">
    <!-- Generator: sketchtool 51.3 (57544) - http://www.bohemiancoding.com/sketch -->
    <title>6CC9DCD0-10D9-4C12-A4B5-3C5A67092D87</title>
    <desc>Created with sketchtool.</desc>
    <defs>
        <path d="M1.05425056,0 C0.471412854,0 0,0.440970539 0,0.981972203 C0,1.52380746 0.471412854,1.96311081 1.05425056,1.96311081 L17.124191,1.96311081 C17.7060763,1.96311081 18.1774892,1.52380746 18.1774892,0.981972203 C18.1774892,0.440970539 17.7060763,0 17.124191,0 L1.05425056,0 Z M1.78691773,5.42857143 C0.799028252,5.42857143 0,5.87037556 0,6.41054363 C0,6.95321248 0.799028252,7.39251583 1.78691773,7.39251583 L16.3921856,7.39251583 C17.3800751,7.39251583 18.1774892,6.95321248 18.1774892,6.41054363 C18.1774892,5.87037556 17.3800751,5.42857143 16.3921856,5.42857143 L1.78691773,5.42857143 Z M1.2210984,10.8571429 C0.546019609,10.8571429 0,11.2981134 0,11.8382815 C0,12.3817839 0.546019609,12.8202537 1.2210984,12.8202537 L16.9563908,12.8202537 C17.6314696,12.8202537 18.1774892,12.3809503 18.1774892,11.8382815 C18.1774892,11.2981134 17.6314696,10.8571429 16.9563908,10.8571429 L1.2210984,10.8571429 Z" id="path-1"></path>
    </defs>
    <g id="Screens" stroke="none" stroke-width="1" fill="none" fill-rule="evenodd">
        <g id="Mobile-Home-Full-Ideal-ordination-2" transform="translate(-9.000000, -44.000000)">
            <g id="Header-Busca-New">
                <g id="menu_mobile" transform="translate(9.000000, 44.000000)">
                    <g id="menu">
                        <mask id="mask-2" fill="white">
                            <use xlink:href="#path-1"></use>
                        </mask>
                        <g id="Clip-2"></g>
                        <polygon id="Fill-1" fill="#616161" mask="url(#mask-2)" points="-2.0974026 15.1753247 18.1774892 15.1753247 18.1774892 -3.7012987 -2.0974026 -3.7012987"></polygon>
                    </g>
                    <path d="M0.310333333,19.7590952 L1.09566667,15.5030952 C1.10833333,15.4524286 1.159,15.4080952 1.20966667,15.4080952 L1.311,15.4080952 C1.349,15.4080952 1.406,15.4397619 1.41866667,15.4777619 L2.74233333,18.7140952 L2.76766667,18.7140952 L4.085,15.4777619 C4.09766667,15.4397619 4.14833333,15.4080952 4.19266667,15.4080952 L4.294,15.4080952 C4.34466667,15.4080952 4.39533333,15.4524286 4.408,15.5030952 L5.187,19.7590952 C5.206,19.8477619 5.16166667,19.9047619 5.073,19.9047619 L4.66133333,19.9047619 C4.60433333,19.9047619 4.55366667,19.8604286 4.541,19.8160952 L4.07233333,16.9850952 L4.05333333,16.9850952 L2.91333333,19.8984286 C2.90066667,19.9364286 2.86266667,19.9680952 2.80566667,19.9680952 L2.69166667,19.9680952 C2.641,19.9680952 2.59666667,19.9364286 2.584,19.8984286 L1.43766667,16.9850952 L1.41233333,16.9850952 L0.956333333,19.8160952 C0.95,19.8604286 0.893,19.9047619 0.842333333,19.9047619 L0.430666667,19.9047619 C0.342,19.9047619 0.297666667,19.8477619 0.310333333,19.7590952 Z M6.118,19.7844286 L6.118,15.5917619 C6.118,15.5284286 6.16866667,15.4714286 6.23833333,15.4714286 L8.77166667,15.4714286 C8.84133333,15.4714286 8.892,15.5284286 8.892,15.5917619 L8.892,15.9464286 C8.892,16.0097619 8.84133333,16.0667619 8.77166667,16.0667619 L6.77033333,16.0667619 L6.77033333,17.3587619 L8.46133333,17.3587619 C8.52466667,17.3587619 8.58166667,17.4157619 8.58166667,17.4790952 L8.58166667,17.8337619 C8.58166667,17.9034286 8.52466667,17.9540952 8.46133333,17.9540952 L6.77033333,17.9540952 L6.77033333,19.3157619 L8.77166667,19.3157619 C8.84133333,19.3157619 8.892,19.3727619 8.892,19.4360952 L8.892,19.7844286 C8.892,19.8477619 8.84133333,19.9047619 8.77166667,19.9047619 L6.23833333,19.9047619 C6.16866667,19.9047619 6.118,19.8477619 6.118,19.7844286 Z M9.84833333,19.7844286 L9.84833333,15.5220952 C9.84833333,15.4587619 9.90533333,15.4080952 9.96866667,15.4080952 L10.127,15.4080952 L12.8756667,18.5874286 L12.882,18.5874286 L12.882,15.5917619 C12.882,15.5284286 12.9326667,15.4714286 13.0023333,15.4714286 L13.4076667,15.4714286 C13.471,15.4714286 13.528,15.5284286 13.528,15.5917619 L13.528,19.8540952 C13.528,19.9174286 13.471,19.9680952 13.4076667,19.9680952 L13.243,19.9680952 L10.4943333,16.7000952 L10.488,16.7000952 L10.488,19.7844286 C10.488,19.8477619 10.4373333,19.9047619 10.3676667,19.9047619 L9.96866667,19.9047619 C9.90533333,19.9047619 9.84833333,19.8477619 9.84833333,19.7844286 Z M14.6996667,18.2517619 L14.6996667,15.5917619 C14.6996667,15.5284286 14.7566667,15.4714286 14.82,15.4714286 L15.2443333,15.4714286 C15.314,15.4714286 15.3646667,15.5284286 15.3646667,15.5917619 L15.3646667,18.2074286 C15.3646667,18.8407619 15.77,19.3347619 16.416,19.3347619 C17.0683333,19.3347619 17.48,18.8470952 17.48,18.2200952 L17.48,15.5917619 C17.48,15.5284286 17.5306667,15.4714286 17.6003333,15.4714286 L18.0246667,15.4714286 C18.088,15.4714286 18.145,15.5284286 18.145,15.5917619 L18.145,18.2517619 C18.145,19.2144286 17.4166667,19.9680952 16.416,19.9680952 C15.4216667,19.9680952 14.6996667,19.2144286 14.6996667,18.2517619 Z" id="Menu" fill="#616161"></path>
                </g>
            </g>
        </g>
    </g>
</svg>