<?xml version="1.0" encoding="UTF-8"?>
<svg width="17px" height="14px" viewBox="0 0 17 14" version="1.1" xmlns="http://www.w3.org/2000/svg" xmlns:xlink="http://www.w3.org/1999/xlink">
    <!-- Generator: sketchtool 52.5 (67469) - http://www.bohemiancoding.com/sketch -->
    <title>7DA82357-7051-4C03-AC62-A389EBFB77D9</title>
    <desc>Created with sketchtool.</desc>
    <g id="Screens" stroke="none" stroke-width="1" fill="none" fill-rule="evenodd">
        <g id="Desktop-HD-Home-Full-Ideal-2" transform="translate(-1401.000000, -127.000000)" fill="#EE7D6D" fill-rule="nonzero">
            <g id="Header">
                <g id="Cats">
                    <g transform="translate(0.000000, 110.000000)">
                        <g id="Ofertas" transform="translate(1345.000000, 15.000000)">
                            <g id="offers_icon" transform="translate(56.000000, 2.000000)">
                                <path d="M15.9538413,0.382 L3.53726341,0.382 C3.231329,0.382 2.95203268,0.554743965 2.81561338,0.828389779 L0.170370517,6.11726108 C-0.056456839,6.57172301 -0.056456839,7.10690642 0.170370517,7.56136834 L2.81480617,12.8510469 C2.95122547,13.1246927 3.231329,13.2974366 3.53645619,13.2974366 L15.9530341,13.2974366 C16.3986167,13.2974366 16.7602489,12.9358044 16.7602489,12.4902218 L16.7602489,1.18921479 C16.7610561,0.743632226 16.3994239,0.382 15.9538413,0.382 Z M6.67087122,3.20725176 C7.56284356,3.20725176 8.2853008,3.929709 8.2853008,4.82168134 C8.2853008,5.71365369 7.56284356,6.43611092 6.67087122,6.43611092 C5.77889888,6.43611092 5.05644164,5.71365369 5.05644164,4.82168134 C5.05644164,3.929709 5.77889888,3.20725176 6.67087122,3.20725176 Z M11.51416,11.2793997 C10.6221876,11.2793997 9.89973038,10.5569424 9.89973038,9.66497008 C9.89973038,8.77299774 10.6221876,8.0505405 11.51416,8.0505405 C12.4061323,8.0505405 13.1285895,8.77299774 13.1285895,9.66497008 C13.1285895,10.5569424 12.4053251,11.2793997 11.51416,11.2793997 Z M6.19784335,11.2793997 L5.05644164,10.137998 L11.9871878,3.20725176 L13.1285895,4.34865348 L6.19784335,11.2793997 Z" id="Shape"></path>
                            </g>
                        </g>
                    </g>
                </g>
            </g>
        </g>
    </g>
</svg>