<?xml version="1.0" encoding="UTF-8"?>
<svg width="16px" height="16px" viewBox="0 0 16 16" version="1.1" xmlns="http://www.w3.org/2000/svg" xmlns:xlink="http://www.w3.org/1999/xlink">
    <!-- Generator: sketchtool 51.3 (57544) - http://www.bohemiancoding.com/sketch -->
    <title>116AE343-B811-41C3-ACDA-329B1E053FF3</title>
    <desc>Created with sketchtool.</desc>
    <defs></defs>
    <g id="Screens" stroke="none" stroke-width="1" fill="none" fill-rule="evenodd">
        <g id="Desktop-HD-Checkout-Tarjeta-Guest-Domicilio-(srecogida1)" transform="translate(-45.000000, -4.000000)" fill="#FFFFFF" fill-rule="nonzero">
            <g id="Header-Lite">
                <g id="Ayuda">
                    <g transform="translate(45.000000, 2.000000)">
                        <g id="phone-call-(3)" transform="translate(0.000000, 2.000000)">
                            <path d="M12.9906839,12.0180391 C12.8104296,11.8238774 12.6236207,11.6395883 12.440089,11.4618809 C12.3483232,11.3730273 12.2565574,11.2808827 12.1647916,11.1887382 L11.3651181,10.3857642 C11.0242737,10.0435131 10.6244369,9.86251484 10.2147681,9.86251484 C9.80182197,9.86251484 9.40526257,10.0435131 9.06441813,10.3857642 C8.98248437,10.4680362 8.89727326,10.5503081 8.8153395,10.63258 C8.62525317,10.82016 8.42861215,11.0143217 8.23852583,11.2183561 C7.90095873,11.0538122 7.55683694,10.8267417 7.15700019,10.5108176 C6.63590148,10.0830036 6.19018182,9.65518961 5.79362242,9.20104862 C5.58059465,8.95423286 5.2069767,8.92790584 4.96117542,9.14510371 C4.71537414,9.3590107 4.68915534,9.73417065 4.90546046,9.98098641 C5.34462542,10.4877814 5.83950533,10.9649586 6.416319,11.4355539 C6.41959635,11.4355539 6.41959635,11.4388448 6.4228737,11.4388448 C7.00296472,11.8995676 7.49128993,12.2023282 8.01238865,12.4162352 C8.02549805,12.422817 8.03860745,12.4261078 8.05171685,12.4293987 C8.17625617,12.4721801 8.54987411,12.5972334 8.91693736,12.2319461 C8.92349206,12.2253644 8.93332411,12.2154917 8.93987881,12.20891 C9.16273864,11.9555125 9.39870787,11.7251511 9.6477865,11.4783353 C9.73299761,11.3960634 9.81820872,11.3105006 9.90341983,11.2249378 C9.98207624,11.1459568 10.1033382,11.0472305 10.2213228,11.0472305 C10.3393074,11.0472305 10.457292,11.1426659 10.5392258,11.2249378 L11.3388993,12.0279118 C11.4339425,12.1233472 11.532263,12.2187826 11.6240288,12.3109272 C11.8075604,12.4886345 11.9779826,12.6597601 12.1418502,12.8341766 C12.1451275,12.8407583 12.1516822,12.8440492 12.1549596,12.8473401 C12.2794989,12.9723934 12.4138702,13.169846 12.1484049,13.4528614 L11.148813,14.4565788 C10.9357852,14.6704858 10.699816,14.7823756 10.4015771,14.8087026 C9.89358778,14.851484 9.35282496,14.7527577 8.64819463,14.4894876 C7.47490318,14.0550918 6.38026815,13.3936256 5.19714465,12.4063626 C3.76821987,11.2051926 2.64408869,9.76378854 1.85096989,8.12164104 C1.56911775,7.52599235 1.23810536,6.73618192 1.1823904,5.89700835 C1.15289425,5.42970385 1.27743357,5.09403442 1.5789498,4.81101902 C1.79853228,4.62672992 1.99189595,4.42598644 2.17542758,4.23511559 C2.29341219,4.11006227 2.40484211,3.99488158 2.52282672,3.88628265 L2.52610407,3.88299177 C2.75879595,3.65921215 2.95215962,3.65592128 3.16846475,3.87311914 L4.7841985,5.49552139 C4.78747585,5.49881226 4.7907532,5.50210314 4.79403055,5.50539402 C4.86285491,5.57121155 4.94478867,5.67322873 4.94806602,5.78511854 C4.94806602,5.9035901 4.85957756,6.01877079 4.78747585,6.09446096 L3.78460663,7.10146924 C3.5551921,7.33183062 3.5551921,7.70699057 3.78460663,7.94064282 C4.01402115,8.17100419 4.3876391,8.17100419 4.62033098,7.94064282 L5.6232002,6.93363453 C5.96076729,6.59467422 6.13446687,6.19647813 6.13118952,5.77524591 C6.12791217,5.36388631 5.95093524,4.97556286 5.61992285,4.65634781 L4.00746645,3.03723645 C3.33233227,2.35931583 2.41467416,2.35602496 1.71659852,3.02736382 C1.5789498,3.15570801 1.45441049,3.28734308 1.32987117,3.41568727 C1.1561716,3.5966855 0.992304081,3.76781109 0.815327159,3.91590054 C0.808772458,3.92248229 0.802217758,3.92906405 0.792385706,3.9356458 C0.218849386,4.45889521 -0.0433386468,5.14339757 0.00582160927,5.97269852 C0.0746459678,7.01261557 0.458095965,7.94064282 0.785831006,8.63172694 L0.785831006,8.63501781 C1.65432886,10.4318365 2.88005791,12.0048756 4.43679936,13.3146446 C5.72479807,14.3874704 6.93086301,15.1147542 8.23197113,15.598513 C8.71046428,15.7762204 9.40853992,16 10.1819946,16 C10.2835925,16 10.3884677,15.9967091 10.4933429,15.9868365 L10.4966203,15.9868365 C11.0701566,15.9374733 11.5683138,15.7038211 11.9779826,15.2924615 L12.9808519,14.2854532 C12.9841292,14.2821623 12.9874066,14.2788715 12.9906839,14.2755806 C13.6363219,13.6009508 13.6330446,12.6729236 12.9906839,12.0180391 Z" id="Shape"></path>
                            <path d="M12.6221486,8.51822612 C12.4030841,7.23313055 11.7953567,6.06101042 10.866099,5.12896309 C9.943908,4.20397672 8.77085274,3.59673375 7.48119861,3.37784385 C7.13493531,3.31782565 6.8063385,3.55083748 6.74627242,3.89682475 C6.68620634,4.24281202 6.91940407,4.57114688 7.26566737,4.63116508 C8.29032408,4.80415871 9.22664831,5.29136527 9.96864109,6.03276656 C10.7106339,6.77416785 11.1982291,7.70974567 11.3713608,8.73358555 C11.4243603,9.04426799 11.692891,9.26315789 11.9967547,9.26315789 C12.0320877,9.26315789 12.0674207,9.25962741 12.1027537,9.25256645 C12.449017,9.19254825 12.6822147,8.86421339 12.6221486,8.51822612 Z" id="Shape"></path>
                            <path d="M15.9913543,7.74001817 C15.6638932,5.80717752 14.749596,4.046217 13.3522126,2.64847485 C11.9548292,1.2507327 10.1943206,0.336200712 8.26197601,0.00865556824 C7.94424149,-0.0464757926 7.64271793,0.167563608 7.58760072,0.485379689 C7.5324835,0.803195769 7.74646797,1.10479674 8.06420248,1.1599281 C9.75662509,1.44855699 11.299907,2.24634022 12.5254544,3.47220224 C13.7510018,4.69806426 14.5518225,6.24174237 14.8371351,7.93459945 C14.8857679,8.21998532 15.1321743,8.42105263 15.4110025,8.42105263 C15.4434244,8.42105263 15.4758463,8.41780961 15.5082682,8.41132357 C15.8324871,8.35943523 16.0464715,8.05783425 15.9913543,7.74001817 Z" id="Shape"></path>
                        </g>
                    </g>
                </g>
            </g>
        </g>
    </g>
</svg>