<?xml version="1.0" encoding="UTF-8"?>
<svg width="20px" height="20px" viewBox="0 0 20 20" version="1.1" xmlns="http://www.w3.org/2000/svg" xmlns:xlink="http://www.w3.org/1999/xlink">
    <!-- Generator: sketchtool 52.5 (67469) - http://www.bohemiancoding.com/sketch -->
    <title>C993D0C0-3A56-4546-85D5-DFEBFD068379</title>
    <desc>Created with sketchtool.</desc>
    <g id="Landing-Ofertas" stroke="none" stroke-width="1" fill="none" fill-rule="evenodd">
        <g id="Desktop-Landing-Ofertas" transform="translate(-977.000000, -60.000000)" fill="#FFFFFF">
            <g id="Header">
                <g id="Busca">
                    <g transform="translate(257.000000, 50.000000)">
                        <path d="M727.462277,22.5925926 C728.395066,22.5925926 729.254683,22.3593988 730.041152,21.8930041 C730.827622,21.4266095 731.449472,20.8001868 731.906722,20.0137174 C732.363971,19.227248 732.592593,18.3676316 732.592593,17.4348422 C732.592593,16.5020529 732.363971,15.6424365 731.906722,14.8559671 C731.449472,14.0694977 730.827622,13.4476475 730.041152,12.9903978 C729.254683,12.5331481 728.395066,12.3045267 727.462277,12.3045267 C726.529488,12.3045267 725.669871,12.5331481 724.883402,12.9903978 C724.096933,13.4476475 723.47051,14.0694977 723.004115,14.8559671 C722.537721,15.6424365 722.304527,16.5020529 722.304527,17.4348422 C722.304527,18.3676316 722.537721,19.227248 723.004115,20.0137174 C723.47051,20.8001868 724.096933,21.4266095 724.883402,21.8930041 C725.669871,22.3593988 726.529488,22.5925926 727.462277,22.5925926 Z M734.320988,22.5925926 L740,28.2716049 L738.271605,30 L732.592593,24.2935528 L732.592593,23.388203 L732.263374,23.0864198 C731.623225,23.6534093 730.887064,24.08779 730.05487,24.3895748 C729.222675,24.6913595 728.358486,24.8422497 727.462277,24.8422497 C726.108818,24.8422497 724.860545,24.5130348 723.717421,23.8545953 C722.574297,23.1961558 721.673529,22.3091048 721.015089,21.1934156 C720.33836,20.0411465 720,18.7883012 720,17.4348422 C720,16.0813833 720.333787,14.8331104 721.001372,13.6899863 C721.668956,12.5468621 722.574297,11.6460938 723.717421,10.9876543 C724.860545,10.3292148 726.108818,10 727.462277,10 C728.815736,10 730.068581,10.3383597 731.22085,11.0150892 C732.33654,11.6735287 733.219018,12.5697246 733.868313,13.7037037 C734.517607,14.8376829 734.84225,16.0813833 734.84225,17.4348422 C734.84225,18.3493416 734.69136,19.2226753 734.389575,20.0548697 C734.08779,20.8870641 733.653409,21.623225 733.08642,22.2633745 L733.388203,22.5925926 L734.320988,22.5925926 Z" id="search"></path>
                    </g>
                </g>
            </g>
        </g>
    </g>
</svg>