<?xml version="1.0" encoding="UTF-8"?>
<svg width="75px" height="70px" viewBox="0 0 75 70" version="1.1" xmlns="http://www.w3.org/2000/svg" xmlns:xlink="http://www.w3.org/1999/xlink">
    <!-- Generator: sketchtool 51.3 (57544) - http://www.bohemiancoding.com/sketch -->
    <title>BDDA3F8B-2C94-410E-832D-AE236682BD2E</title>
    <desc>Created with sketchtool.</desc>
    <defs></defs>
    <g id="Screens" stroke="none" stroke-width="1" fill="none" fill-rule="evenodd">
        <g id="Desktop-HD-Home-Submenu-categorías" transform="translate(-462.000000, -600.000000)">
            <g id="BANNER-01" transform="translate(122.000000, 585.000000)">
                <g id="sello" transform="translate(340.000000, 15.000000)">
                    <g id="discount" fill="#CCDC45">
                        <path d="M71.6125857,35.5764217 C71.6125857,53.3998792 55.9976343,67.8491393 36.7350156,67.8491393 C17.4723969,67.8491393 1.85744555,53.3998792 1.85744555,35.5764217 C1.85744555,17.7539072 17.4723969,3.30370402 36.7350156,3.30370402 C55.9976343,3.30370402 71.6125857,17.7539072 71.6125857,35.5764217" id="Fill-1"></path>
                        <path d="M74.5899342,36.8563156 L74.1893941,37.3099179 L74.3178115,37.5720831 C74.3178115,37.5720831 74.3983272,37.3957346 74.4594784,37.2156139 C74.5247049,37.0364404 74.5899313,36.8563238 74.5899342,36.8563156 L74.8847848,36.8563156 L74.8847848,37.7993557 L74.1893941,37.7993557 L74.1893941,36.8563156 L74.5899342,36.8563156 Z M2.64606166,29.2474884 C3.00378599,30.1744424 3.46546063,31.15786 4.13909764,30.5345522 C4.13909764,30.5345522 3.97093192,30.7533375 3.81703481,30.977781 C3.66619526,31.2059967 3.5153557,31.4323263 3.5153557,31.4323263 C3.83639935,32.0509606 3.95360576,32.2933219 4.06265868,32.5696327 C4.17374997,32.8431143 4.25834242,33.1486593 4.49785117,33.8399076 C4.21145986,33.9002622 4.00456507,33.5230462 3.77932492,33.7578632 C4.19005695,34.2812504 3.93118366,34.8715935 3.63256211,35.3902655 C3.34718998,35.9051654 3.08322076,36.3408499 3.48070337,36.4408122 C3.70186677,37.2527697 4.17680753,36.7576737 4.4295657,37.2565419 C4.33783894,37.236738 4.15642381,37.1980734 4.15540462,37.3461307 L4.78118493,37.9110117 C4.59467386,38.1694047 4.33580057,37.3838523 4.14419357,38.083588 C4.39593256,38.6531842 4.65378666,39.0879257 4.80258784,39.5075785 C4.88004599,39.7178765 4.92998611,39.9244022 4.95750414,40.1394154 C4.99521403,40.3534855 5.00540589,40.577929 4.98298379,40.8259486 C5.18070591,41.4926779 5.43346408,41.2927534 5.65258911,41.0815124 C5.87273332,40.8683854 6.05720602,40.6420557 6.10612696,41.2050507 C5.66991527,41.4530702 5.159303,41.7020328 5.26835592,42.4262876 C5.68622225,42.7271174 6.00420834,42.6054652 6.39659502,43.164688 L5.68520307,43.2995427 C5.89413623,43.8691389 6.16116301,44.2916209 5.64137806,44.4462794 C6.10001184,44.8338689 6.17033569,45.1629899 6.14791359,45.4449589 C6.48730259,45.8212319 6.77267471,45.541149 7.00301079,45.1488443 C7.23436605,44.7546535 7.41068526,44.2510701 7.5105655,44.1162154 C7.4004934,44.5952798 7.4738748,44.9602363 7.49120097,45.2921864 C7.50648876,45.6269656 7.49935446,45.919308 7.18850267,46.3021823 C7.18850267,46.3021823 7.06620033,46.1371503 6.9428788,45.9711752 C6.88070845,45.8872447 6.81853809,45.8042571 6.77267471,45.7420165 C6.72884971,45.6778898 6.7003125,45.6345099 6.7003125,45.6345099 C6.604509,46.5662335 7.01320265,46.859519 7.28430617,47.0594435 C7.57273586,47.258425 7.73580565,47.3687606 7.21194395,48.0213444 C7.10798697,47.7450336 6.88886194,47.4828685 6.66871772,47.3451846 C6.45774619,47.2037286 6.24065953,47.1867539 6.12651068,47.4225139 C6.12651068,47.4225139 6.17033569,47.4630647 6.23454441,47.5262483 C6.30282989,47.5875459 6.39455664,47.6686474 6.48424503,47.7506919 C6.66566017,47.9110087 6.84605612,48.0703825 6.84605612,48.0703825 C6.71661947,48.2363575 6.50462875,47.6743056 6.48016828,48.1175345 C6.73802238,48.2816234 7.28736373,48.5965988 7.61350331,48.6890168 L7.56763993,48.6965611 C7.56763993,48.6965611 7.7837074,49.024739 7.99875568,49.3519739 C8.10678942,49.5141768 8.21380396,49.6782658 8.29330049,49.799918 C8.37993131,49.918741 8.43700574,49.9979564 8.43700574,49.9979564 C8.30756909,49.7348482 8.03748476,49.7886015 8.16590221,50.0573679 L9.03424883,50.7505024 C8.71728193,50.5694387 8.68161042,50.9485408 8.83958427,51.3936557 C9.42663551,52.6054622 10.7852107,51.4426938 10.7954025,52.62338 C10.7189636,52.4979556 10.6302944,52.5271899 10.551817,52.4008225 L10.6068531,52.9883365 C10.9360502,52.8035006 11.2224415,52.8572539 11.4884491,53.025115 C11.766687,53.1863749 12.0275986,53.4626856 12.2874911,53.7408825 C12.807276,54.2963331 13.3810779,54.812176 13.9813785,54.3821497 C14.0129733,55.2855821 13.7490041,54.6594035 12.5494219,54.3991244 L12.7583551,55.2469175 C12.4923475,55.0441639 12.3955248,54.7753974 12.0428864,54.6103654 C12.1580545,55.1837338 12.5371917,55.5496333 12.9856336,55.7589882 C13.4401907,55.9664571 13.9385727,56.0428433 14.2820384,56.1079131 C14.4175902,56.5256798 13.2169889,56.6511042 14.268789,57.258422 C14.9903728,57.7025938 15.1167519,57.4574034 15.1799415,57.1716623 C15.2421118,56.8868642 15.2400734,56.5652875 15.6569206,56.8189653 C15.6569206,56.8189653 15.6487671,57.069814 15.6548822,57.3131183 L15.6660933,57.8091574 C16.0105782,57.8978031 16.2877968,58.0222844 16.524248,58.1731708 C16.7668143,58.317456 16.9747283,58.4796589 17.1612394,58.6597795 C17.3497888,58.8370711 17.5179545,59.0313373 17.6922354,59.2218314 C17.8726313,59.4028951 18.057104,59.5839588 18.265018,59.7480478 C18.5014692,59.8329214 18.6461936,59.8348075 18.7440355,59.8018011 C19.1150193,60.2422008 19.7469147,60.3789416 20.3217357,60.5043659 C20.9149021,60.6062143 21.4723969,60.6684549 21.7771336,60.9721138 C21.5192795,61.0192658 21.9707789,61.5907481 21.9799516,61.7916156 C21.9799516,61.7916156 22.3835493,61.8557424 22.7871471,61.918926 C22.9858884,61.9538185 23.1907448,61.9755084 23.3426035,61.9905971 C23.4944623,62.0075718 23.5953617,62.0179453 23.5953617,62.0179453 C22.8819314,61.9377868 22.7107081,62.318775 22.4008755,62.6346935 C22.8676628,62.8063268 23.1948215,62.670529 23.5240187,62.7544596 C23.2712605,62.811042 23.0083105,62.8695104 23.1652651,63.1429921 L24.0825327,63.1429921 C24.5401473,63.1222452 24.9977619,63.1033844 24.9977619,63.1033844 C24.9355915,63.0024791 24.7715025,62.9147764 24.631874,62.8431053 C25.0212032,62.976074 25.9333748,63.0411437 26.372644,63.5249233 C26.2666487,63.6644932 26.0189864,63.7474808 25.9099335,63.8879937 C25.6021393,63.3099102 25.2056759,63.565474 24.8306153,63.776715 C25.9435666,64.1020638 25.0558555,63.9822977 25.4757602,64.4425013 C26.2748022,64.6754322 26.7792993,64.2425768 26.695726,63.8398987 C27.0983046,64.058684 27.3694081,64.1973109 27.6639529,64.2670958 C27.9584977,64.3378239 28.2785222,64.3425391 28.7820001,64.2501211 L28.4558606,64.764078 C28.4558606,64.764078 28.5108966,64.7669071 28.5934507,64.7697362 C28.677024,64.7706792 28.7891344,64.7716223 28.9002257,64.7716223 L29.3445909,64.7735084 L28.4752251,65.306326 C29.2508258,65.6722256 29.3904543,65.4496681 29.5463898,65.2223954 C29.6248671,65.1092306 29.7094596,64.9932367 29.8806828,64.9507999 C30.0519061,64.9130783 30.3107794,64.9366543 30.7480103,65.0865977 L30.653226,65.5845228 C31.4074237,65.5071936 31.7733116,64.7216412 32.224811,65.3751679 C32.9412989,65.1516674 31.1872795,64.5349192 32.7710948,64.6169637 C33.0116228,64.9111922 33.5915397,65.1724143 34.0440584,65.2959526 C34.5719968,65.0998002 33.7107845,64.6773183 33.3866833,64.7159829 C35.7624062,64.6499701 34.7697189,66.5615124 36.9976599,65.9343907 C36.6185226,65.7618144 36.7775157,65.5137948 36.8040145,65.3176425 C36.8315325,65.1214902 36.7336907,64.9734329 35.8673824,64.9583442 C36.2852488,64.8140591 36.6857889,65.023414 37.1026361,65.1554396 C37.5164257,65.2959526 37.9475414,65.4062883 38.3684653,65.1224332 L37.8252391,65.7797321 C38.1452635,65.7853904 38.4917868,65.5449152 38.6558758,65.447782 L38.6151083,65.9475933 C39.1359125,65.4741871 39.6404096,65.5449152 40.1010818,65.5798076 C40.556658,65.5958393 40.9633133,65.5845228 41.1967069,64.9819202 C41.0407714,65.4515542 41.2384936,65.4157187 41.5371151,65.2987817 C41.8357367,65.1809017 42.2189507,64.9545721 42.4645745,65.094142 C42.2750059,65.2865222 42.0191902,65.4081743 41.7440099,65.4958771 C41.4667913,65.5713203 41.1702081,65.6090419 40.8991046,65.6514787 C40.3568975,65.7391814 39.9145707,65.8315993 39.894187,66.2418218 C40.3497632,66.4653223 40.6779412,65.9994605 41.1192488,66.1984419 C40.8501836,66.3540435 40.4567778,66.6218669 40.3640318,66.8019876 C41.1049802,66.9472158 41.6604366,66.7708673 42.1068402,66.4851261 C42.5552821,66.1965558 42.9069013,65.8372576 43.3023456,65.6627952 L41.854082,66.0975366 C41.8336983,65.258231 42.4992269,65.8457449 42.784599,65.1394079 C42.987417,65.2186233 43.1708705,65.2337119 43.3369979,65.2101359 C43.5021061,65.1818447 43.6519264,65.118661 43.7956317,65.0507622 C44.0850805,64.9159074 44.3459922,64.765021 44.6762085,64.835749 C44.5192539,64.8640402 44.5294457,64.9460847 44.3704527,64.9734329 C44.5671556,64.9281669 44.7506091,64.9102492 44.9248899,64.9083631 C45.0961132,64.8998757 45.2571446,64.9102492 45.4100226,64.9338252 C45.7157784,64.9828633 45.9868819,65.0856546 46.2325058,65.1978764 C46.7257919,65.4251491 47.1090059,65.6656243 47.4310688,65.5760355 C47.7602659,65.5288835 48.1852665,65.3082121 48.4482166,65.071509 C48.708109,64.8216034 48.8110468,64.5679256 48.5379049,64.4792799 C48.7366462,64.2774693 48.2586479,64.5386914 47.7694386,64.6339384 C47.2832868,64.740502 46.8215954,64.7282424 47.076392,64.0813169 C47.7256136,64.5330331 48.1526526,64.2850136 48.653073,63.9134558 C48.904812,63.730506 49.1850882,63.5334107 49.5336498,63.3740369 C49.8781348,63.2061758 50.2960011,63.0882957 50.8555343,63.0882957 C50.2419842,63.8276392 51.6637489,63.517379 51.0797553,64.1265829 C51.9399484,63.6522337 51.8696245,63.4438219 52.0877304,62.9562701 L52.5463642,63.1741124 C52.8979834,62.5196426 52.8439665,62.3018003 52.9081752,62.1113062 C52.9621921,61.9113817 53.1334154,61.7388054 53.8020015,61.0833925 C53.4371329,61.6614761 54.7661516,61.1786396 54.5154318,61.6529887 C54.9801807,61.4068553 55.3582988,61.0541583 55.5244262,60.646765 L55.5009849,60.7306955 C56.229703,60.1309221 56.6282048,60.0177572 56.9828816,59.8687569 C57.1612392,59.7989719 57.3314432,59.7254148 57.527127,59.5830158 C57.7238299,59.4453319 57.9419358,59.235034 58.1967323,58.8795079 L57.9011683,58.8078368 C58.2232311,58.3363168 58.6288672,57.9128918 59.0314458,57.4621186 C59.2383406,57.2433333 59.454408,57.0264341 59.678629,56.813307 C59.8906197,56.5916926 60.1077064,56.3691352 60.3288698,56.1503499 C60.7824076,55.7222097 61.1931397,55.2554048 61.6028525,54.8065178 C62.0003351,54.3491433 62.349916,53.8729081 62.6485375,53.4032741 C62.6485375,53.4032741 62.4824102,53.5268124 62.3142444,53.6465785 C62.1460787,53.7654015 61.9789322,53.8851676 61.9789322,53.8851676 C62.1032729,53.8295282 62.2795921,53.494749 62.4864869,53.1203621 C62.6923625,52.7431461 62.9583701,52.3461262 63.3313923,52.1754359 C63.2671835,52.2970881 63.215205,52.5460507 63.1092097,52.6290382 C63.3456609,52.7620069 63.8766569,52.7808677 64.2425447,52.364987 L63.9999784,51.9745684 L64.4056145,51.9632519 C64.8805552,51.2908643 63.746201,51.8529162 64.2160458,51.1871299 C64.5523773,51.2427693 64.8387686,51.0824525 65.1098721,50.8146291 C65.3748605,50.5430336 65.6490216,50.176191 65.8691658,49.776342 C66.0964443,49.3793221 66.341049,48.9813592 66.5795386,48.6569534 C66.817009,48.3306615 67.0850549,48.0920724 67.4142521,48.0307748 C66.8394311,47.1933552 66.6101142,49.3868664 66.1443461,48.5154974 C66.373663,48.3466932 66.5744427,48.3118007 66.8740834,47.8610276 L66.3043583,47.8223629 C66.6539392,47.3084061 66.9250427,46.858576 67.1869735,46.4577839 C67.4580771,46.059821 67.6741445,45.6939215 67.8779818,45.329908 C68.0848766,44.9658945 68.2815795,44.6075393 68.4313999,44.1963738 C68.5812202,43.7852083 68.7544819,43.3419795 68.8462086,42.7997315 L68.9369162,42.9110102 C69.3262453,42.1942997 69.3496866,41.7567291 68.9471081,41.3342472 C69.2243267,41.2182532 69.2447104,41.7953938 69.5188715,41.5351147 C68.9756453,40.7344737 69.3588593,40.1224407 69.7298431,39.5349267 C69.9214501,39.2435273 70.1314024,38.9662735 70.2272059,38.7012793 C70.3158751,38.436285 70.3056832,38.1854363 70.0835007,37.9572206 C70.6185734,38.0524677 71.1821833,37.6573339 71.7101218,37.3197255 C72.2268492,36.9858894 72.6987324,36.7095786 73.1104836,37.1367758 L72.9993923,36.5153124 C73.3459156,36.624705 73.3601842,37.1160289 73.3224743,37.6224414 C73.2898604,38.1288539 73.2592848,38.6541273 73.6170191,38.8681974 C73.6170191,38.8681974 73.5650406,38.9889065 73.4702563,39.165255 C73.3744528,39.3425465 73.2480737,39.5773635 73.1216946,39.8131235 C72.9953156,40.0441683 72.8689365,40.2752132 72.7751713,40.4487325 C72.680387,40.6213089 72.6141399,40.7344737 72.6141399,40.7344737 C72.8923777,40.7118407 73.2266708,41.0890567 73.3764912,40.7872839 C73.3000522,41.2720065 73.2541888,41.705805 73.7576668,41.1239492 C72.4459742,43.353296 71.7702538,45.5930162 70.9243292,47.847825 C70.0885966,50.081887 69.0592185,52.3206641 67.2868538,54.0096489 C67.1574171,54.3048204 67.4723457,54.2831305 67.6833172,54.2661558 C67.1482445,54.4528777 67.1003427,54.6641187 67.1543596,54.8904483 C67.2124532,55.1167779 67.3785805,55.3572532 67.2705468,55.5779245 C67.2705468,55.5779245 66.8710258,55.7005198 66.4704857,55.823115 C66.2737827,55.8844126 66.0740222,55.9400519 65.9201251,55.9777735 C65.7682664,56.0173812 65.6663478,56.0447294 65.6663478,56.0447294 C65.5644292,56.6077243 66.0668879,56.4719265 66.2014205,56.6105534 C65.8406286,57.1103647 65.4288774,57.5715113 64.9651477,57.9741894 C64.73685,58.1797721 64.5054947,58.3778105 64.2751586,58.5730198 C64.041765,58.764457 63.7961411,58.9408055 63.5627475,59.1209261 C63.3283347,59.3010468 63.0990178,59.4792814 62.8788736,59.659402 C62.6556718,59.8348075 62.4314509,60.0054977 62.2265944,60.1846753 C61.8148432,60.5449166 61.4560897,60.9259048 61.1523722,61.3380134 C60.4185582,61.4888998 60.7416402,60.6854296 60.0129221,61.1192281 C60.7824076,61.1230002 60.4022512,61.6011215 59.9130418,62.0575529 C59.4248516,62.5111552 58.8622609,62.9704157 59.3810266,63.0203969 C58.7226324,62.8742256 58.041816,63.2306948 57.4700526,63.4872017 C56.8942124,63.7418225 56.3968495,63.8314113 56.1451105,63.1552516 C55.2492459,63.5871639 55.7792227,64.0803739 56.1033239,64.0379371 C55.5906733,64.3227352 55.1085982,64.5481218 54.6907319,64.8263186 C54.4797603,64.9640025 54.2840766,65.1148889 54.0996039,65.2789779 C53.9110544,65.4364655 53.7337161,65.6137571 53.5696271,65.8155677 C53.3790393,65.8099094 52.9948061,65.9815427 52.4872514,66.2078723 C51.970524,66.4181703 51.3488204,66.7246583 50.6832918,66.9670196 C49.3603882,67.470603 47.9070287,67.8034961 47.2384426,67.4413688 C48.149595,67.9072306 47.3026513,67.799724 46.7115233,68.2599275 L47.5115845,68.6776943 C47.5115845,68.6776943 47.1171594,68.765397 46.7237535,68.8521567 C46.5260314,68.8936505 46.3293285,68.9370303 46.1825657,68.9700367 C46.0358029,69.0039862 45.9349034,69.0181318 45.9349034,69.0181318 C45.6291476,69.1426131 45.5323249,69.1369548 45.5200947,69.0850876 C45.2469528,69.1124358 45.4925766,68.7333337 44.7872998,68.7267324 C44.2563038,68.8248086 43.9953922,68.9483468 43.79767,69.0954611 C43.6009671,69.2472905 43.4715305,69.4330694 43.2024653,69.635823 L43.3859188,69.6961776 L42.6572007,69.8753552 C42.3830396,69.9102477 42.8406542,69.682975 43.1290839,69.4443859 C43.419552,69.2076828 43.5398159,68.9615494 42.648028,68.9511759 C42.6622966,69.1322396 41.7419715,70.0488746 41.2018029,69.6726016 C42.1119361,69.5971584 41.930521,69.1935372 41.5789017,69.0558534 C41.5789017,69.0558534 41.2649924,69.0813155 40.9531214,69.1067775 C40.7971859,69.1199801 40.6402313,69.1322396 40.5230249,69.14167 C40.4068376,69.1520435 40.3273411,69.1520435 40.3273411,69.1520435 C40.3273411,69.1520435 40.452701,69.3331072 40.5770417,69.5151139 C40.7034208,69.6924054 40.8287807,69.871583 40.8287807,69.871583 C38.9973032,70.0168112 37.1158855,69.964001 35.2365062,69.7442726 C33.3550885,69.5254873 31.4757092,69.2227715 29.5769654,68.8936505 C29.7695915,68.2674719 26.9250429,68.3033074 27.5365546,67.4083624 L27.6496843,67.5356728 C28.1093373,67.5988564 28.0940495,67.3885585 27.8749244,67.1669441 C27.6568186,66.9349562 27.2420098,66.6775063 26.8720453,66.6378986 C27.1951273,66.8868612 26.7905104,67.0358615 26.5163493,67.1999505 C26.2432074,67.3612103 26.1045981,67.5385019 27.0157505,67.8544203 C27.0157505,67.8544203 26.6203063,67.871395 26.2238428,67.8883698 C25.8233027,67.9110027 25.4268393,67.9015723 25.4268393,67.9015723 C24.7154473,68.6748652 23.7166449,68.3391429 22.6709598,67.7223947 C21.6130446,67.117906 20.5357648,66.246537 19.3575856,66.0154922 C19.5410391,66.0202074 19.6286891,65.9475933 19.6765909,65.9051565 C19.1374414,65.8297133 18.6390593,65.611871 18.1804256,65.3497059 C17.9500895,65.2186233 17.7309645,65.0762242 17.5230505,64.930053 C17.3212516,64.7753944 17.131683,64.6160207 16.9543446,64.4623051 C16.2358183,63.8559304 15.75782,63.281619 15.4714287,63.2759607 L15.6508055,62.7582317 C14.6886937,62.6290352 14.1729855,62.4941805 13.699064,62.2555914 C13.2200465,62.0179453 12.8317365,61.6096089 12.1590736,60.8570629 C12.2406085,60.811797 12.528019,60.8457464 12.3598533,60.5656635 C12.0337137,60.5590622 11.7167468,60.5336002 11.350859,60.3949733 C10.9921055,60.2488021 10.5660857,60.0026686 10.1176437,59.4755092 L10.2847903,59.401009 C10.2847903,59.401009 9.88017336,59.0407677 9.47657563,58.6786403 C9.0811314,58.3099117 8.70097495,57.9260943 8.70097495,57.9260943 C9.03017209,57.6677014 8.98940464,57.4121375 8.76008775,57.1499724 C8.52873249,56.8896933 8.13430744,56.5954648 7.71134518,56.2899198 C7.28634455,55.9872039 6.87968926,55.636393 6.63916133,55.2761517 C6.40169095,54.9149674 6.32729036,54.5500109 6.63304621,54.176567 C6.30690663,54.1397884 5.89005949,53.822927 5.47830827,53.4560844 C5.0634995,53.0911279 4.69965004,52.6516712 4.4071436,52.4149681 C4.46829477,52.3781895 4.51313897,52.3055755 4.52231164,52.1716638 C3.89041621,52.0405812 3.67842549,51.4775863 3.54287373,50.883471 C3.39814929,50.2902988 3.41139871,49.6320568 3.1616981,49.2557838 C2.70306432,48.8163272 2.54101372,49.1454482 2.38405905,49.4887147 C2.44928696,48.8323588 1.97842295,48.1646865 1.44742696,47.589432 C0.953121661,47.0038041 0.44454776,46.4964486 0.516909978,46.2503151 C0.307976813,45.4100664 1.04994435,45.7646495 1.34245078,45.4393006 C0.818589086,44.2831335 -0.102755216,46.0466184 0.0674488755,44.2350385 C0.190770403,44.41233 0.363012866,44.7461662 0.418048919,44.5867924 C0.383396589,44.2586145 0.802282107,43.6946765 1.14574785,43.1731753 C1.49227115,42.648845 1.77254734,42.1641224 1.52692348,41.8962991 L1.30270252,42.3536735 C0.973505384,41.8331154 1.18753448,41.1069745 1.35162345,40.5336061 C1.53609615,39.9555226 1.650245,39.5207811 1.05809784,39.4934329 L0.534236143,39.6584649 C0.641250691,39.1492233 0.684056511,38.8493366 0.696286745,38.6465829 C0.703421048,38.4447724 0.66571116,38.342924 0.624943713,38.2401327 C0.584176266,38.1373413 0.54035126,38.0336069 0.536274515,37.8289672 C0.533216957,37.6233845 0.557677425,37.3187825 0.709536165,36.8189713 L0.799224548,36.8397181 C0.671826277,35.9768365 1.32818217,35.5204051 0.478180904,35.0913218 L0.352821004,35.3874364 C0.332437281,34.8489605 0.34059077,34.553789 0.36199368,34.2586174 C0.377281472,33.9615598 0.424164036,33.6654452 0.493468696,33.119425 C0.421106478,32.9855133 0.335494839,32.4432653 0.531178585,32.3074675 C0.16223319,32.2499421 0.170386679,31.6011305 0.277401227,30.90611 C0.304919254,30.7335336 0.338552398,30.5562421 0.374223914,30.3864949 C0.422125664,30.2186337 0.469008228,30.0554878 0.510794861,29.9055444 C0.602521617,29.6084868 0.676922207,29.3661255 0.71361291,29.2473025 C0.651442553,30.1290449 1.03567574,29.7640884 1.37098799,29.5745374 C1.12842168,29.2755937 1.01019609,29.0322893 1.02242632,28.7880419 C1.04484842,28.5447376 1.19976471,28.3023763 1.49329033,28.0015465 C1.06625133,27.8582044 0.628001271,27.7016598 0.334475653,27.3998869 C0.187712844,27.2471144 0.0776407372,27.0594495 0.02362387,26.8189742 C-0.0202011355,26.5803851 -0.0038941567,26.2908718 0.0908901575,25.9334596 C0.155098886,26.1861944 0.124523301,26.5454926 0.345686701,26.4511886 C0.568888473,26.3540555 0.472065787,25.9806116 0.441490201,25.8523582 C0.661634415,25.7608833 0.662653601,26.2446628 1.01223446,26.1692196 C0.74011175,25.5920791 0.848145485,25.1743123 1.07236644,24.7424 C1.29862577,24.3067155 1.56871011,23.8361385 1.71751129,23.1326306 C1.79395025,23.6399861 2.11091715,23.3363272 2.46457476,23.2948335 C2.00899854,23.0751051 2.40648114,22.7007182 2.73465909,22.3998884 C3.06997134,22.1009447 3.3533051,21.872729 2.62968292,21.8680138 C3.57141094,20.7514544 4.44485349,19.2416472 5.30300825,17.9468532 C5.75960366,17.3178454 6.16014382,16.7152428 6.58514446,16.2805013 C7.0019916,15.8410447 7.37603293,15.5279554 7.71542192,15.4374235 C8.1964778,15.425164 8.21788071,14.5019278 8.52261737,14.1181104 L8.82633485,14.4311998 C8.96392499,13.6937424 9.09743838,13.4542102 9.24012444,13.1929881 C9.31248666,13.0609625 9.38892562,12.9242217 9.47963319,12.7148668 C9.57747506,12.508341 9.6926431,12.2358024 9.83634835,11.8199218 C9.73850648,12.6299932 10.1288548,12.5809551 10.9044555,12.3932901 L10.9666258,11.7105291 C11.01147,11.3729208 11.0563142,11.0353124 11.0563142,11.0353124 L11.6984015,11.355003 C11.849241,10.8749956 12.3017597,10.6071722 12.7746621,10.3751844 C12.588151,10.5326721 12.7318563,10.4902353 12.8276598,10.5675645 C12.6014004,10.1601712 12.8979836,9.66130302 13.2516412,9.19827034 C13.6205866,8.75409847 14.0415105,8.34670515 14.0302995,8.08642609 C14.5184896,8.27597715 14.7590176,8.04493233 14.9924112,7.81954575 C15.2217281,7.59227309 15.4377956,7.36594347 15.8424125,7.59887437 C15.9076404,7.40932331 16.0217892,7.20279753 16.1767055,7.01796168 C15.7384555,6.82841062 15.4000857,6.52475172 15.9147747,6.43893507 C15.9443311,6.41158691 15.9718491,6.39649827 16.0014055,6.37103618 L16.4732887,6.68978373 C16.8096202,6.35406146 17.186719,6.04945952 17.4618993,5.89102878 C17.3090214,5.91931998 17.115376,5.92592126 16.9003277,5.91649086 C17.1184336,5.8749971 17.334501,5.86179454 17.5413958,5.8467059 C17.5974511,5.81652862 17.6535063,5.78729437 17.6942738,5.77220573 C17.6769476,5.79861085 17.6504487,5.8231299 17.6178348,5.84104766 C17.9388784,5.80615517 18.2313849,5.71750941 18.5045268,5.37518586 C18.9682565,5.3431225 19.3789885,5.18940696 19.7632217,4.95458998 C20.1494932,4.72260212 20.5051892,4.40102545 20.8965567,4.12094255 C21.2828283,3.83520141 21.6823493,3.54757418 22.1256952,3.35896617 C22.573118,3.18450375 23.0592698,3.09774406 23.5933233,3.18827591 C23.2916442,3.18073159 22.9023151,3.27314952 22.8758163,3.4749601 C23.2335506,3.33350408 23.6086111,3.23071271 23.9836716,3.15904167 C24.3628089,3.09774406 24.7368502,3.05813638 25.0894886,3.0138135 C25.7906887,2.91479429 26.4185074,2.85443972 26.8312778,2.54229346 L26.6284598,2.10755198 C26.8883522,1.98495677 27.1349953,1.86519068 27.3755232,1.76239931 C27.6170703,1.66620922 27.8494448,1.57756345 28.0787617,1.49740505 C28.5373955,1.34463255 28.972588,1.19940438 29.4373369,1.14659414 L29.3782241,0.617548652 C29.7267857,0.608118251 30.1579015,0.519472483 30.6287655,0.405364634 C31.0986103,0.291256784 31.6143185,0.191294535 32.1167773,0.100762688 C32.3674971,0.0592689242 32.6161785,0.021547321 32.8546681,0.00645867968 C33.0931577,-0.00485780129 33.3224745,-0.00108564096 33.5344653,0.021547321 C33.9584467,0.068699325 34.3110851,0.196009736 34.5353061,0.455345758 C34.6871648,0.224300938 35.164144,0.24787694 35.6910632,0.301630225 C36.2200208,0.35726959 36.7989186,0.438371037 37.184171,0.385560792 L37.3737396,0.796726267 C37.8700833,0.874998594 38.2696042,0.881599874 38.624281,0.856137792 C38.9774917,0.842010068 39.2829216,0.799662607 39.5852451,0.760097888 C39.4958437,0.716007464 39.407452,0.6867941 39.3190602,0.635089197 C39.854133,0.360664534 40.3871673,0.504006626 40.8254174,0.750140087 C40.3652173,0.66912175 39.9731629,0.71609414 39.5872745,0.760377258 C40.5643581,1.23626461 41.5047859,1.37198497 42.4513251,1.38612632 C43.3859188,1.44553784 44.3307044,1.3832972 45.1847824,1.61339898 L45.1725522,1.73127899 C45.1725522,1.73127899 45.6281284,1.75485499 46.0837046,1.77748795 C46.5382617,1.81898171 46.9928187,1.85953244 46.9928187,1.85953244 C46.4302279,2.09434942 47.4076275,1.70393082 47.9060095,1.94251996 C48.5185404,1.91611484 49.3838295,2.29333087 49.9199214,2.75542051 L50.9819134,3.16469991 C49.6875469,2.98929445 50.8341314,3.74184044 50.6985796,4.1973288 C50.6985796,4.1973288 50.903436,4.17186672 51.1082925,4.14546159 L51.5159669,4.11056911 C51.6810751,4.42648754 50.9391076,4.272772 51.3743001,4.56511443 C51.6454036,4.54059539 52.1030182,4.66601972 52.5708246,4.76598197 C53.0365927,4.87160245 53.5043992,4.9715647 53.8254428,4.84708341 C53.8213661,4.71222868 53.7204666,4.53965235 53.5716654,4.36518993 C53.5023608,4.36613297 53.5084759,4.36141777 53.5594352,4.34915825 C53.547205,4.33406961 53.5380323,4.32181009 53.5268213,4.30577841 C53.5441474,4.32181009 53.5512817,4.32935441 53.5737038,4.34632913 C53.6501428,4.33124049 53.7755027,4.30200625 53.842769,4.2633416 C54.6061394,4.74240596 54.4043406,4.4302597 54.4807795,4.22939216 C54.7671708,4.76881109 55.0790418,5.01117239 55.3623756,5.24881849 C55.6446901,5.48646459 55.8954099,5.72222461 55.9891751,6.27296001 C55.6365366,4.91875446 57.970473,7.43478539 57.9582427,6.33708674 C58.1416963,7.35839915 58.3740707,6.65017605 58.381205,7.43101323 C58.0081829,7.05756936 57.494513,6.86707527 56.9543444,6.77654342 C56.4151949,6.68318245 55.8801221,6.64546085 55.4225075,6.59170756 C55.4225075,6.59170756 55.5448099,6.7784295 55.6538628,6.97929703 C55.7629157,7.17544937 55.8729878,7.37254475 55.8729878,7.37254475 C55.6395942,7.48382348 55.4398337,7.46684876 55.2604569,7.37820299 C55.0780226,7.29332938 54.9129145,7.14338601 54.756979,6.97458183 C54.4471464,6.63980261 54.1699277,6.24089665 53.8835364,6.25504225 C54.2718464,6.23240929 54.8130342,6.74730918 54.7304801,6.91988551 L54.8874348,6.26164353 C54.664233,6.06926336 54.4277818,5.92403518 54.1862347,5.81464254 C53.9395917,5.71373725 53.6858143,5.64961052 53.4361137,5.60528764 C52.9326357,5.52230011 52.4485223,5.50343931 51.9939653,5.49872411 C52.6024194,5.98533279 50.9605105,5.48929371 51.2693239,6.11641536 L51.8553559,6.27484609 C52.0000804,6.58416324 51.3783768,6.53795428 50.9921052,6.5832202 C50.6190831,6.2984221 50.1288546,6.02022527 49.5815516,5.79295261 C49.3094289,5.6750726 49.0281335,5.56096475 48.7458189,5.44968602 C48.461466,5.34500858 48.1720171,5.25447673 47.8937793,5.16017272 C47.6155414,5.06681175 47.3454571,4.97533686 47.0937181,4.88952022 C46.8389216,4.81030485 46.600432,4.73674772 46.3904797,4.66036148 C45.970575,4.50853202 45.658704,4.35481649 45.5282482,4.18884144 C45.8584645,4.44534834 46.5820867,4.48778514 46.9714158,4.39536721 L46.1835849,3.91158765 C46.5403,3.99363214 46.8164995,4.20864528 47.1365239,4.41045586 C47.4534908,4.62075379 47.8081676,4.83199477 48.3544514,4.88857718 C48.3208183,4.45006354 49.2870068,4.16526543 48.6846677,3.38254217 C47.7755537,2.74976227 47.2476152,2.89687653 46.6799285,3.08642758 C46.3955756,3.18073159 46.096954,3.28635208 45.7208744,3.32124456 C45.3407179,3.37122569 44.8861609,3.35236489 44.2797451,3.18450375 C44.1523468,3.22128231 44.317455,3.08548454 44.3470114,2.93271205 C44.3745294,2.78748388 44.2654765,2.59604674 43.5703915,2.59887586 C43.1280647,2.62905314 42.7122368,2.69600899 42.3361571,2.79597124 C41.9610966,2.89687653 41.6227267,3.04870598 41.3414314,3.21185191 C40.7768022,3.54191594 40.4333365,3.95591054 40.3844155,4.39536721 C40.7329772,4.30577841 41.2639732,4.17280976 41.7266837,4.14451855 C42.1883751,4.11528431 42.5705699,4.22656304 42.6133757,4.55379795 C41.9030029,4.67827924 40.7339964,4.72731732 40.628001,5.1243372 C40.0358539,4.30766449 41.9050413,5.05266615 41.0886732,4.33501265 C40.6147516,4.29729105 40.3854347,4.51230418 40.1550987,4.61415251 C40.5026411,4.33501265 39.7881916,4.06813231 39.658755,3.88895469 C39.2714642,3.86066349 38.9269793,3.81445452 38.6018589,3.75881516 C38.2747002,3.70977708 37.9669059,3.66639723 37.6540158,3.61264395 C37.3401064,3.56077674 37.0221204,3.5032513 36.6766162,3.46081449 C36.3321313,3.42969417 35.95809,3.40517513 35.5371661,3.40045993 C35.443401,3.2938964 35.246698,3.06190854 35.2874655,2.8799018 C34.8726567,2.98080709 34.3895625,3.36085225 34.0654613,3.7408974 C33.7413601,4.12377167 33.5731943,4.52927891 33.7433984,4.74900724 C32.8240925,4.84614037 32.7293082,4.53399411 31.9689953,4.82067829 C33.3163594,5.33086297 31.7040069,4.7386338 31.6887191,5.46288859 C30.9202527,5.67790172 31.3554452,5.166774 30.9610202,5.06681175 C30.8417754,5.16300184 30.5727102,5.44779994 30.5910556,5.64018012 C30.2965108,5.41479354 30.4544847,5.03097623 30.6155161,4.63395635 C30.7734899,4.23787952 30.9345213,3.83048621 30.5747486,3.57020714 C30.3301439,3.41743465 29.7125171,3.21185191 29.1366769,3.1034023 C28.5618559,2.98552229 28.0186297,2.90442085 27.9452483,2.89216133 C27.6914709,3.56549194 28.5078391,5.94006687 29.2436915,6.6067962 C29.2946508,7.0207908 28.4120356,6.32482722 28.0624547,6.38046658 C27.4825378,6.18714337 27.1411104,6.40309955 26.8587958,6.68129637 C26.5744429,6.96326535 26.3390109,7.2820129 25.8997416,7.28106986 L26.3695865,6.73599269 C26.2748022,6.67563813 25.9527393,6.78880294 25.6439259,6.95289191 C25.3340933,7.11320873 25.0527979,7.35651307 25.0089729,7.49702604 C24.8815747,7.2914433 25.1465631,6.14847872 24.675699,6.02116831 C24.2996193,6.12395968 23.9622687,6.30879554 23.678935,6.5360682 C23.394582,6.76239782 23.1774954,7.05568328 23.016464,7.33576619 C22.6954203,7.90536239 22.6312116,8.47873076 22.8381064,8.77767447 C22.8381064,8.77767447 23.2732989,8.39574324 23.7084914,8.01475504 C23.9265972,7.81765967 24.1528565,7.63188077 24.3281566,7.49891212 C24.5014182,7.36217131 24.6165862,7.27163946 24.6165862,7.27163946 C24.7715025,7.53097548 24.4504589,7.80257103 24.1467414,8.09019825 C23.8501582,8.39291412 23.5709012,8.70223126 23.7696425,9.00777625 C23.7696425,9.00777625 23.6473402,9.04361177 23.4649059,9.0983081 C23.2824715,9.1548905 23.0337901,9.22184635 22.7973389,9.31143515 C22.3162831,9.48212541 21.834208,9.64998654 21.834208,9.64998654 C22.053333,9.52550525 22.6811517,9.04078265 22.24494,8.884238 C21.462205,9.29163131 21.7822295,8.98608633 21.1054899,9.00589017 C21.3765934,8.46269908 21.7047713,7.54134892 22.0563906,6.63885957 C22.4069906,5.74580061 22.7535139,4.81407701 22.9277948,4.27654416 C22.9277948,4.27654416 22.8666436,4.32558225 22.775936,4.39819633 C22.6852284,4.47081042 22.5629261,4.56605747 22.4477581,4.67167796 C22.2143644,4.87631766 21.9809708,5.08095735 21.9809708,5.08095735 L21.5508742,4.88291894 C20.9220364,5.38367322 20.5999735,6.34180194 20.4430189,7.20279753 C20.2860642,8.07322353 20.3207165,8.91347224 20.317659,9.25579579 C19.5257513,9.50570141 19.0691559,8.30332531 19.1180768,7.99683728 C18.3628599,8.36745203 18.2772482,8.97382681 18.1824639,9.52833437 C18.0846221,10.083785 18.0255093,10.6533812 17.3018871,11.0136225 L17.9714924,10.908002 C17.8532668,11.0588884 17.4690336,11.2625851 17.1551243,11.4559083 C16.84733,11.6558328 16.5996678,11.8284091 16.7352196,11.8774472 C16.2653747,11.7954027 15.4897741,11.3606612 15.6385752,10.9815591 C15.6385752,10.9815591 15.5397142,11.4210158 15.462256,11.8642447 C15.3949897,12.3084165 15.3277235,12.7516454 15.3277235,12.7516454 C15.3990665,12.5290879 14.5847367,11.8529282 14.5286815,11.661491 C14.0394721,12.0019285 14.5990053,13.1382918 14.9954688,13.0392726 C14.3075181,13.1090576 14.1016425,13.2033616 13.8886326,13.2476844 C13.6786802,13.2967225 13.4799389,13.3146403 12.8133912,13.3146403 C12.620765,13.5862358 13.6511622,14.0454964 13.9079971,13.9728823 C13.5696273,14.6443268 13.1915092,14.8631121 12.8521202,15.0224859 C13.1089552,14.461377 12.735933,14.0077748 12.2365318,13.6154701 C11.7381498,13.2222224 11.1093119,12.8959305 10.8993595,12.5460626 C10.8993595,12.5460626 10.9207624,12.7959683 10.9523572,13.1731843 C10.9859904,13.5466282 11.0338921,14.037952 11.1123694,14.5358772 C11.1847317,15.0290872 11.2672857,15.5128667 11.3335328,15.871222 C11.3967224,16.2276911 11.4527776,16.4681663 11.4527776,16.4681663 C11.3539166,16.2871026 10.6985799,15.5251262 10.5946229,15.4609995 C10.8830526,15.8268991 10.5722008,16.5954767 10.080953,17.3998899 C9.85061696,17.8138845 9.55811053,18.2288222 9.28394945,18.6230129 C9.01692267,19.0219189 8.74479996,19.3840463 8.51242551,19.6631861 L8.62861274,19.4821224 C8.57357668,19.2821979 8.30247316,19.3991349 8.06500278,19.6537557 C7.82957078,19.9093196 7.61146494,20.2921939 7.62471436,20.5845363 C7.50139283,20.4242195 7.61554168,20.3506623 7.72153704,20.1601682 C7.15181197,20.4072447 7.29449803,20.8410432 7.4596062,21.2672973 C7.61554168,21.6926084 7.76638123,22.0952865 7.1497736,22.342363 C7.65528994,21.6181082 7.39335909,21.3003037 7.03562475,21.1748794 C7.02033695,21.5728423 6.69725494,22.0858561 6.58616364,22.5451166 C6.46284212,23.000605 6.49137933,23.3636754 7.08556487,23.4221439 C6.66158342,23.7371193 6.63508458,24.1671455 6.12243393,23.9294994 C6.12243393,23.9294994 6.10816533,24.390646 6.09287754,24.8508496 C6.08268567,25.0790653 6.08166649,25.306338 6.08981998,25.4798573 C6.09389672,25.6514906 6.09695428,25.7655985 6.09695428,25.7655985 C6.02968799,25.6099969 5.75450773,25.3996989 5.50378793,25.8589594 C5.62507108,25.6392311 5.67297283,25.3996989 5.690299,25.1582807 C5.71170191,24.9159194 5.7198554,24.6773302 5.73106644,24.4528867 C5.75960366,24.0077718 5.82483157,23.6277266 6.28142698,23.5277644 C5.65055074,23.2457954 5.13382335,23.4617516 4.80870296,22.8006805 C4.66092096,23.2816309 4.63340293,23.7456066 4.63136456,24.1690316 C4.62728782,24.5915136 4.69659248,24.9913626 4.79545354,25.3695216 C4.89023785,25.7476807 5.01050182,26.1032068 5.12872742,26.4445873 C5.26020243,26.78974 5.39677338,27.1235762 5.50480711,27.4545833 C5.50480711,27.4545833 5.44467513,27.5451151 5.35396756,27.6799698 C5.26631755,27.8157676 5.13382335,27.9949452 5.02884717,28.1826102 C4.8056454,28.5569971 4.58346281,28.9323271 4.58346281,28.9323271 L4.8790268,29.0634096 L4.01985286,29.1869479 C4.14521276,29.425537 4.28789882,29.5867969 4.20228718,29.6150881 C4.12380985,29.6396071 4.02902553,29.5679361 3.9281261,29.4660878 C3.93322203,29.6462084 3.97398948,29.8168987 4.04023658,29.9130888 C3.6111592,29.9074305 3.18921613,29.5321006 2.82128992,29.1265933 C3.0067818,29.002112 3.19431206,28.8766877 3.37266964,28.7484343 C3.05977948,28.341984 2.71529456,28.0043756 2.33717648,28.4211993 C2.37386719,28.4994717 2.4095387,28.5956618 2.44622941,28.696567 C2.2036631,28.4221424 1.99574912,28.2363635 1.83981363,28.3740473 C1.83981363,28.3740473 1.84389038,28.7267443 1.87038922,29.0794413 C1.9009648,29.4311953 1.93154039,29.7829492 1.93154039,29.7829492 C2.06811133,29.6480945 2.33819567,29.4613726 2.6459899,29.2473025 C2.56527035,29.0496413 2.50921511,28.8648054 2.44602557,28.6969443 C2.55915523,28.8270838 2.68655351,28.972312 2.82108608,29.1260275 C2.76206842,29.166513 2.70305077,29.2079384 2.64606166,29.2474884 Z M60.837036,8.92676911 C60.9654535,8.8466107 61.1641948,8.80134477 61.7604187,9.01164271 C61.9397954,9.58406804 62.0386565,9.88018263 62.2751077,10.195158 L61.9805629,10.007493 L62.1140763,10.0386134 C62.1140763,10.0386134 62.0366181,9.96694231 61.9204309,9.85943574 C61.8001669,9.75570134 61.6401547,9.61707444 61.4801425,9.47939059 C61.163407,9.20585735 60.8456795,8.93415991 60.8372092,8.92691721 C60.8138744,8.94383859 60.7935515,8.95888281 60.7722158,8.97486415 C60.7722158,8.93902863 60.7722158,8.90507918 60.7722158,8.86830062 L60.8374437,8.92676911 Z M67.3995758,15.3752772 L67.3944799,15.3922519 C67.176374,15.0706752 67.0622252,14.9018711 67.0143234,14.831143 C67.072391,14.9122082 67.2058109,15.1016258 67.3993157,15.3749098 L67.6030053,14.8679216 C67.7823821,15.2847453 67.6305234,15.5214484 67.5826216,15.6242398 C67.5194321,15.536537 67.4562425,15.4516634 67.3991681,15.3752772 Z M72.8213405,30.1732735 L72.4177427,29.5574683 L73.0292545,30.2345711 L72.8213405,30.1732735 Z M71.6344982,25.4580731 C71.6426517,25.8418904 71.841393,26.3313282 72.0992471,26.8528294 C72.3530244,27.3743306 72.6108785,27.9420407 72.7963704,28.4465671 L72.0666331,28.1957185 L72.2123767,28.020313 C72.2480482,27.5704829 71.9636953,27.078216 71.7160331,26.6378162 C71.4775435,26.1936444 71.3226272,25.7881371 71.6344982,25.4580731 Z M72.3117474,22.4262936 C72.3932823,22.6733701 72.4513759,22.81294 72.4992776,22.9147883 C72.490105,22.955339 72.4778747,22.977972 72.4707404,23.0458709 C71.8286531,21.9745774 72.0865072,22.6894017 72.3117474,22.4262936 Z M72.4993796,22.9144111 C72.7327732,23.4047919 72.6074133,22.5013595 72.4993796,22.9144111 Z M71.296536,20.7106207 C71.3903012,20.2192969 71.4871239,20.0033407 71.9528919,20.6106585 C71.7245942,20.4493986 71.9691989,21.0416278 71.8652419,21.2443814 L71.296536,20.7106207 Z M70.4610072,20.349625 C70.4610072,20.349625 70.5313311,20.4165808 70.6026741,20.4854228 C70.6699404,20.5542647 70.7372067,20.6240497 70.7372067,20.6240497 C70.7789933,20.5354039 70.7616671,20.4363847 70.4610072,20.349625 Z M71.3044857,21.2217485 C71.004845,20.9897606 70.7296647,20.9435516 70.9742694,20.9067731 C70.4310431,20.8784819 70.6644368,20.7681462 70.736799,20.623861 L71.3044857,21.2217485 Z M71.3845937,21.6619596 C71.7321362,22.2475875 71.7555775,22.6512086 71.6506013,22.7426835 C71.5344141,22.8360445 71.2755408,22.6285757 70.9514396,22.0457769 C71.4916083,22.5823667 71.4029391,22.0816124 71.3845937,21.6619596 Z M70.753106,25.4598649 C70.8672548,25.4098838 70.9100606,25.5834031 70.9365595,25.792758 C70.9600008,26.003056 70.9783461,26.2444742 71.0731304,26.3302909 L70.6878781,25.9917395 C70.6878781,25.9917395 70.7113193,25.8587708 70.7266071,25.7258022 C70.7398565,25.5928335 70.753106,25.4598649 70.753106,25.4598649 Z M69.3995248,16.6732775 C69.2038411,16.8298222 69.4127742,17.3051144 69.4474266,17.5955707 C69.4474266,17.5955707 69.3353161,17.506925 69.2232056,17.4182792 C69.1100759,17.3305765 68.9918503,17.247589 68.9918503,17.247589 C69.148805,17.0976456 69.2283015,16.7213726 69.3995248,16.6732775 Z M68.9919523,17.2478719 L68.2958481,16.7480606 C68.6637743,17.3384037 68.8553813,17.3761253 68.9919523,17.2478719 Z M69.5965335,20.6074522 L69.4721928,20.3999833 C69.4721928,20.3999833 69.5537277,20.4659961 69.6739916,20.5631293 C69.7932364,20.6621485 69.9573254,20.7904019 70.1061266,20.9280858 C70.4139208,21.2034535 70.7206958,21.4797642 70.7206958,21.4797642 C70.7206958,21.4797642 70.442458,21.2562637 70.1642202,21.0346493 C69.8920975,20.8130349 69.5965335,20.6074522 69.5965335,20.6074522 Z M67.5955653,14.1949682 L67.2031786,14.0365375 C67.2031786,14.0365375 67.4538984,14.1072655 67.7056374,14.1789365 L68.1968851,14.3373673 C68.1968851,14.3373673 68.0460456,14.3005887 67.8962252,14.2638101 C67.7464048,14.2289177 67.5955653,14.1949682 67.5955653,14.1949682 Z M66.2055992,12.6855383 C65.9823974,12.06879 65.6766416,11.6812006 65.2506217,11.4444975 C65.7408503,11.5916118 66.2789806,11.7764476 66.7131539,12.1546067 C66.3115945,12.0103216 66.691751,12.7411776 66.2055992,12.6855383 Z M64.4627908,11.1752596 C64.682935,11.2827661 64.9550577,11.3572663 65.2506217,11.444026 C65.0202857,11.3223738 64.7685467,11.2242977 64.4627908,11.1752596 Z M67.6283831,15.6878007 C67.6110569,15.6651677 67.5988267,15.6472499 67.5825197,15.624617 C67.562136,15.672712 67.5600976,15.696288 67.6283831,15.6878007 Z M68.9879774,18.6854422 C68.5130367,18.4213909 67.7782034,17.7801237 67.8943907,18.7307081 C68.3489477,18.846702 68.2786239,18.2978527 68.9879774,18.6854422 Z M67.3626812,16.3067179 C67.3626812,16.3067179 67.4126214,16.3397243 67.4900795,16.3887623 C67.5634609,16.4406296 67.6613028,16.5094715 67.7591447,16.5783134 C67.9558476,16.7178833 68.1525505,16.8565102 68.1525505,16.8565102 C67.9110034,16.7376872 67.8396604,16.9545864 67.7418185,17.0319157 C67.7418185,17.0319157 67.6480534,16.8489659 67.5553074,16.6679022 C67.4645999,16.4840094 67.3626812,16.3067179 67.3626812,16.3067179 Z M66.9919013,16.0690718 L67.2100072,16.0436097 L67.3628851,16.3067179 L66.9919013,16.0690718 Z M65.1545125,12.4949499 C65.5214195,12.8627355 65.1728578,12.874052 65.0128456,12.9183749 C64.6928211,12.5751083 64.3952188,12.1828036 64.111885,11.792385 C64.4635043,12.0809553 64.7509148,12.3553799 65.1545125,12.4949499 Z M66.2513606,13.9021543 C66.225881,13.8898947 66.2014205,13.8691479 66.1779792,13.8568883 C66.1779792,13.919129 66.1922478,13.9568506 66.2513606,13.9021543 Z M64.9992904,13.0308795 C64.9024677,12.9610946 64.9411968,12.9375186 65.013559,12.9186578 C65.2245306,13.1383861 65.4426364,13.3269941 65.664819,13.4957983 C65.4090033,13.4345007 65.1735713,13.3496271 64.9992904,13.0308795 Z M63.3909127,10.4596808 C63.4642941,10.6520609 63.5651936,10.8529285 63.6681314,11.0641694 C63.6487668,10.8331246 63.5315604,10.4210161 63.3909127,10.4596808 Z M66.2021339,13.6866696 C66.2214985,13.697043 66.2378055,13.7036443 66.2541124,13.7149608 C66.2592084,13.5650174 66.2286328,13.6055682 66.2021339,13.6866696 Z M66.2021339,13.6866696 C66.1868462,13.7394799 66.1756351,13.8036066 66.1776735,13.8573599 C66.0074694,13.7639989 65.8362461,13.6395176 65.6650228,13.4961755 C65.841342,13.5442706 66.0278531,13.5867074 66.2021339,13.6866696 Z M57.7843696,10.3362368 C57.6539138,10.1042489 58.0412045,10.1466858 58.1064324,10.0438944 C58.1064324,10.0438944 57.8801731,9.96373598 57.6528946,9.88357757 C57.4276544,9.80153308 57.1922224,9.73646332 57.1922224,9.73646332 C57.337966,9.37056377 57.8230987,9.36962073 58.2542144,9.41394361 C58.6894069,9.45260825 59.0919854,9.50730458 59.0848511,9.17346839 C59.2234605,9.41300057 59.1908465,9.57426042 59.2509785,9.73269116 C59.3111105,9.89206493 59.4639884,10.0420083 59.949121,10.2966291 C60.7451054,10.4371421 59.7809553,9.25645592 59.6810751,8.92167669 C60.5168077,9.21401911 60.6238223,9.10274038 60.7716043,8.97542997 C60.803199,10.0080589 60.20086,11.3302011 59.3916262,11.093498 C59.2509785,10.6804464 58.9299348,10.4097939 58.5976801,10.2938 C58.2695022,10.1712048 57.945401,10.1900656 57.7843696,10.3362368 Z M63.4222017,11.2212799 C62.826997,10.7356143 62.4835313,10.4725061 62.2756173,10.1952523 C62.2756173,10.1952523 62.6262173,10.4206389 62.9778366,10.6450824 C63.3355709,10.8666969 63.6739407,11.1100012 63.6739407,11.1100012 C63.6749599,11.1118873 63.6749599,11.1147164 63.6739407,11.1184886 C63.6545762,11.1335772 63.6290965,11.1392354 63.6076936,11.151495 C63.4609308,11.0845391 63.1582325,10.8270892 63.4242401,11.2193938 C63.4874297,11.2043052 63.5516384,11.1882735 63.6076936,11.151495 C63.6148279,11.1562102 63.6311349,11.1675266 63.6392884,11.1675266 C63.6708832,11.245799 63.681075,11.2052482 63.6739407,11.1184886 L63.6800558,11.1147164 L63.6739407,11.1100012 C63.6719024,11.0949126 63.6708832,11.082653 63.6678256,11.0637922 C63.7962431,11.3080396 63.9460634,11.551344 64.1121908,11.7918192 C63.9032576,11.6164137 63.6790367,11.4334639 63.3916262,11.2665458 C64.0265791,12.2520227 62.2664446,11.0713366 63.4986407,12.1049085 C62.9187238,11.834256 62.8769371,12.2642823 62.1349696,11.6324454 C62.1308929,10.9610009 62.8891674,11.3429321 63.4222017,11.2212799 Z M66.5594606,18.5519077 C66.5696525,18.4934392 66.6012473,18.4783506 66.6287653,18.4576037 C66.5227699,18.4066795 66.4677339,18.3972491 66.5594606,18.5519077 Z M66.4569305,17.899041 C66.5884055,17.3511348 66.7565712,17.0578493 67.0164637,16.6825193 C66.9002765,16.6287661 66.8513555,17.6000973 67.0541736,18.180067 L67.17138,18.2357063 C67.3476992,18.9146952 66.8605282,18.5667134 66.6281538,18.4582638 C66.7545329,18.3658459 67.007291,18.579916 66.9542933,18.2536241 C66.7932619,17.9339335 66.5761753,17.9556234 66.4569305,17.899041 Z M65.0341466,14.5661488 C64.8190983,14.6123578 64.6906809,14.9047002 64.2789296,14.3039836 L64.1077064,14.4784461 L63.9813273,13.74759 C63.9813273,13.74759 64.2483541,13.9484575 64.5153808,14.148382 C64.6519518,14.2474012 64.7783309,14.3539648 64.8731152,14.4341232 C64.970957,14.5123955 65.0341466,14.5661488 65.0341466,14.5661488 Z M60.8046259,8.59849685 L60.1778264,8.390085 C60.1778264,8.390085 60.4530067,8.37593939 60.7271677,8.36179379 C61.0054056,8.34670515 61.2765091,8.34576211 61.2765091,8.34576211 L60.8046259,8.59849685 Z M59.3221177,7.59095283 L59.0866857,7.23448368 C59.0866857,7.23448368 59.2263142,7.24957232 59.3659427,7.26466096 C59.5065904,7.2797496 59.6441805,7.29861041 59.6441805,7.29861041 L59.3221177,7.59095283 Z M9.03465651,50.750691 L9.32002864,50.9723054 C9.20282223,50.8591406 9.11313384,50.7921847 9.03465651,50.750691 Z M7.84129142,48.6509179 L7.6140129,48.6886395 C7.77810187,48.7386207 7.88103968,48.7414498 7.84129142,48.6509179 Z M16.9004296,5.91667947 C16.6140383,5.9713758 16.3093017,6.09114189 16.0015074,6.37028175 L15.5724301,6.08642669 C15.2310027,5.73561578 16.1737499,5.88838827 16.9004296,5.91667947 Z M4.57265944,29.9522249 L4.13848613,30.5340806 C4.27607626,30.4077133 4.41876233,30.2209913 4.57265944,29.9522249 Z M18.829851,59.7464446 C19.0112661,59.5832987 18.9225969,59.2522916 19.4444203,59.5748113 C19.4444203,59.5748113 19.289504,59.6191342 19.1356068,59.6644001 C18.9827289,59.7049508 18.829851,59.7464446 18.829851,59.7464446 Z M42.0805452,1.173848 C41.592355,0.937144935 41.1867189,0.814549725 40.825927,0.750422999 C41.4241893,1.08237311 41.8593818,1.52937411 42.0805452,1.173848 Z M3.97154343,52.2674766 C4.17436148,52.4306226 4.31500917,52.4711733 4.40673593,52.4145909 C4.20493707,52.2476728 4.05002077,52.1703435 3.97154343,52.2674766 Z M63.331698,52.1753416 C63.3704271,52.1583669 63.4020219,52.1291327 63.4417701,52.1159301 C63.3928492,52.0734933 63.3622736,52.1121579 63.331698,52.1753416 Z M73.4279601,40.140547 C73.4371328,40.2980347 73.4034996,40.5498264 73.3770008,40.7874725 C73.4259217,40.6761938 73.4503822,40.4819275 73.4279601,40.140547 Z M53.0984573,3.87773251 C53.4653643,4.00881509 53.1799922,3.85509955 53.0984573,3.87773251 Z M53.8723254,6.25655112 C53.7765219,6.2678676 53.6888719,6.29993096 53.6277207,6.38857673 C53.7102748,6.30464616 53.7918097,6.26598152 53.8723254,6.25655112 Z M35.5369623,3.40064854 C35.5257512,3.39876246 35.5175977,3.39876246 35.5053675,3.39876246 C35.6154396,3.48552214 35.5970942,3.46854742 35.5369623,3.40064854 Z M53.5265155,4.30596701 C53.4225585,4.19563133 53.2941411,4.08152348 53.1453399,3.97590299 C53.2013951,4.04002971 53.315544,4.14376412 53.5265155,4.30596701 Z M53.5593333,4.08029752 C53.6714438,4.15291161 53.7590938,4.21043705 53.8426671,4.2632473 C53.9242019,4.21798138 53.907895,4.15668377 53.5593333,4.08029752 Z M52.5898834,3.69072767 C52.8385648,3.78597471 52.9904236,3.839728 53.0984573,3.8774496 C53.0729777,3.88310784 53.0903038,3.91894337 53.1453399,3.97646881 C52.9771742,3.86896224 52.7967782,3.76994303 52.5898834,3.69072767 Z M41.1195545,66.1985362 C41.144015,66.2117388 41.171533,66.216454 41.1990511,66.2334287 C41.516018,66.0061561 41.3692551,66.0542511 41.1195545,66.1985362 Z M12.843661,15.0634138 L12.8049319,15.0454961 C12.8192005,15.0388948 12.8375459,15.0304074 12.8528337,15.0228631 C12.8467186,15.0370087 12.8507953,15.0502113 12.843661,15.0634138 Z M12.3166398,16.119713 C12.3166398,16.119713 12.1046491,15.7038323 11.8916392,15.2860656 C11.6867828,14.8607545 11.4819263,14.4363865 11.4819263,14.4363865 C11.4819263,14.4363865 11.8131619,14.5863298 12.1454165,14.7372163 C12.4756329,14.8909318 12.80483,15.0455904 12.80483,15.0455904 C12.4369038,15.2191097 12.1912799,15.3954582 12.3166398,16.119713 Z M4.35027302,29.8665969 C4.24733521,29.9146919 4.14439741,29.915635 4.04044042,29.9128058 C4.11382182,30.0184263 4.21777881,30.0382302 4.35027302,29.8665969 Z M18.7164156,59.7768105 L18.8295452,59.7466332 C18.806104,59.7683231 18.7785859,59.788127 18.7439336,59.8013295 C18.7357801,59.7918991 18.7245691,59.7862409 18.7164156,59.7768105 Z M31.0894376,5.82275268 C30.844833,5.79068932 30.697051,5.72090435 30.5910556,5.64074594 C30.6032858,5.7642842 30.7296649,5.8491578 31.0894376,5.82275268 Z M56.7855671,5.48476712 C56.5552311,5.3574567 56.5970177,5.58472936 56.5450392,5.69506505 C56.4186601,5.52060264 56.3493554,5.3621719 55.9793909,5.19148165 C55.9793909,5.19148165 56.1822089,5.2631527 56.385027,5.33293766 C56.5898834,5.40083655 56.7855671,5.48476712 56.7855671,5.48476712 Z M60.3851289,11.9258252 C60.0946608,11.5316344 60.4778748,11.6080207 60.8437626,11.9097935 L60.6929231,12.1012306 C60.5645056,12.0748255 60.5125271,11.9522303 60.3851289,11.9258252 Z M56.4670715,7.28795405 C56.2683301,7.68308785 56.7911727,7.7924805 57.2956698,8.04144308 C57.2681518,8.02446836 57.2385954,8.01032275 57.2141349,7.98768979 C57.7196513,7.58689776 57.0969285,7.41809358 56.4670715,7.28795405 Z M57.4121628,8.10019447 C57.5670791,8.17658072 57.719957,8.26428345 57.8463361,8.37273306 C58.0511925,8.21524536 57.70365,8.21713144 57.4121628,8.10019447 Z M51.7737191,3.70459036 C51.0164638,3.54615962 51.2549534,3.40281753 51.6289947,3.33586168 C51.9999785,3.27645016 52.5044756,3.30757048 52.2405064,3.49429242 C52.1712017,3.27550712 51.9795947,3.91111613 51.7737191,3.70459036 Z M56.0187315,8.68412489 L55.654882,8.34745958 L56.1644751,8.14847813 L56.0187315,8.68412489 Z M52.4695175,6.34217916 C52.5265919,6.1950649 53.0096862,6.54021757 53.4856461,6.78635103 C53.3409217,6.76183199 53.2155618,6.75994591 53.1829478,6.84293344 L52.4695175,6.34217916 Z M53.4851365,6.78606812 C53.7307604,6.91715069 53.9661924,7.03785982 54.1506651,7.03408766 C54.013075,6.9690179 53.7195494,6.82567581 53.4851365,6.78606812 Z M54.9239217,8.22175234 C54.9239217,8.22175234 54.7639094,8.07746721 54.5937053,7.94827072 C54.4245204,7.81624511 54.2553355,7.68421949 54.2553355,7.68421949 L54.7679862,8.00108096 L54.9239217,8.22175234 Z M43.5217763,3.42280998 C43.6308293,3.61801928 43.2649414,3.62839272 43.0152408,3.71420936 C42.6513914,3.72646889 42.4149402,3.57558247 42.5423384,3.41337958 L43.5217763,3.42280998 Z M45.9452991,5.4350689 L45.4560898,5.56709451 L45.6650229,4.94657414 C45.7536921,5.14932776 45.736366,5.26626473 45.9452991,5.4350689 Z M43.2928671,4.99853565 C43.1593537,5.1597955 41.8884286,5.29276415 43.0288979,5.43987841 C43.1542578,5.27201727 44.0888515,5.29276415 43.2928671,4.99853565 Z M29.3248187,4.32529934 L29.2840512,3.23137284 L29.5571931,4.26683085 L29.3248187,4.32529934 Z M19.3294561,10.9312008 C18.6710618,10.487972 19.0349112,10.4511934 19.4191444,9.90800231 C19.3294561,10.2154334 20.199841,9.71750821 20.1325748,10.0570026 C19.1531368,10.2493828 20.3455847,10.6341432 19.3294561,10.9312008 Z M19.4190425,9.90800231 C19.4822321,9.82124262 19.5444024,9.72316645 19.602496,9.60717252 C19.4832512,9.75617286 19.4394262,9.84293254 19.4190425,9.90800231 Z M73.5135717,36.1685565 C73.6827566,36.0497335 73.6267014,35.7366442 73.5981642,35.5763273 L74.2514625,36.0101258 L73.5135717,36.1685565 Z M7.00423381,43.4411873 L6.74637971,44.0004101 C6.69236284,43.7203272 6.66484482,43.5798142 6.8207803,43.4421304 L7.00423381,43.4411873 Z M10.0851317,51.0610455 L9.60917175,51.4872996 L10.0148079,50.9346781 L10.0851317,51.0610455 Z M15.3567703,55.8581961 C15.1570098,55.6563855 14.8115057,55.5187016 14.627033,55.2980302 C15.1488563,55.6582716 14.8400429,56.4560835 15.3567703,55.8581961 Z" id="Combined-Shape"></path>
                    </g>
                    <text id="-30%" font-family="Quicksand-Bold, Quicksand" font-size="24" font-weight="bold" line-spacing="20" fill="#FFFFFF">
                        <tspan x="9.07826087" y="48">-30%</tspan>
                    </text>
                </g>
            </g>
        </g>
    </g>
</svg>