<?xml version="1.0" encoding="UTF-8"?>
<svg width="27px" height="27px" viewBox="0 0 27 27" version="1.1" xmlns="http://www.w3.org/2000/svg" xmlns:xlink="http://www.w3.org/1999/xlink">
    <!-- Generator: sketchtool 51.3 (57544) - http://www.bohemiancoding.com/sketch -->
    <title>C2CFDF16-AF63-4D92-8A7B-19B89EBF4D8D</title>
    <desc>Created with sketchtool.</desc>
    <defs></defs>
    <g id="Screens" stroke="none" stroke-width="1" fill="none" fill-rule="evenodd">
        <g id="Mobile-Home-Full-Ideal-ordination-2" transform="translate(-38.000000, -40.000000)">
            <g id="Header-Busca-New">
                <g id="telephone" transform="translate(38.000000, 40.000000)">
                    <g id="telefono">
                        <circle id="Oval-3" fill="#F4F3F1" cx="13.5" cy="13.5" r="13.5"></circle>
                        <path d="M18.4518096,18.2948942 C18.2374056,18.0639479 18.0152051,17.8447447 17.7969028,17.6333701 C17.6877517,17.5276828 17.5786005,17.4180812 17.4694494,17.3084796 L16.5182753,16.3533797 C16.1128568,15.946288 15.6372697,15.7309991 15.1499879,15.7309991 C14.6588078,15.7309991 14.187119,15.946288 13.7817005,16.3533797 C13.6842441,16.4512383 13.5828895,16.5490969 13.4854331,16.6469555 C13.2593343,16.8700731 13.0254391,17.1010194 12.7993403,17.3437087 C12.3978201,17.1479915 11.9885033,16.8779018 11.5129162,16.5021248 C10.8930938,15.9932601 10.3629311,15.4843955 9.8912423,14.944216 C9.63785574,14.6506403 9.19345471,14.6193255 8.90108561,14.8776722 C8.60871651,15.1321045 8.57753047,15.5783397 8.83481528,15.8719155 C9.35718141,16.4747244 9.94581786,17.0423042 10.6319107,17.6020554 C10.6358089,17.6020554 10.6358089,17.6059697 10.6397072,17.6059697 C11.3296983,18.1539778 11.9105382,18.5140974 12.5303607,18.7685298 C12.5459537,18.7763585 12.5615468,18.7802728 12.5771398,18.7841871 C12.7252735,18.8350736 13.1696745,18.9838187 13.606279,18.5493265 C13.6140755,18.5414978 13.6257703,18.5297548 13.6335668,18.5219261 C13.8986481,18.2205217 14.1793224,17.9465176 14.4755898,17.6529418 C14.5769444,17.5550832 14.678299,17.4533103 14.7796537,17.3515374 C14.8732118,17.2575931 15.0174472,17.1401628 15.1577844,17.1401628 C15.2981215,17.1401628 15.4384587,17.2536788 15.5359151,17.3515374 L16.4870892,18.3066372 C16.6001386,18.4201532 16.7170862,18.5336692 16.8262374,18.6432708 C17.0445396,18.8546453 17.2472489,19.0581912 17.4421616,19.2656514 C17.4460599,19.2734801 17.4538564,19.2773944 17.4577546,19.2813088 C17.6058883,19.4300538 17.7657168,19.6649145 17.4499581,20.001548 L16.2609904,21.1954228 C16.0076039,21.4498552 15.7269296,21.5829429 15.3721884,21.6142576 C14.7679589,21.6651441 14.1247469,21.5477138 13.2866221,21.2345663 C11.8910469,20.7178729 10.5890299,19.9310898 9.18175995,18.7567867 C7.4821209,17.3280513 6.14501955,15.6135688 5.20164192,13.6603113 C4.86639201,12.9518151 4.47266829,12.0123726 4.40639796,11.014215 C4.37131367,10.4583782 4.51944735,10.0591152 4.87808678,9.72248161 C5.13926984,9.50327836 5.36926687,9.2645034 5.58756913,9.03747147 C5.7279063,8.88872641 5.86044696,8.75172438 6.00078413,8.62255104 L6.00468238,8.6186367 C6.28145846,8.35246133 6.51145549,8.34854699 6.7687403,8.60689367 L8.69057986,10.5366651 C8.69447811,10.5405794 8.69837637,10.5444938 8.70227462,10.5484081 C8.78413797,10.626695 8.88159434,10.7480396 8.88549259,10.8811273 C8.88549259,11.0220437 8.78023971,11.1590457 8.69447811,11.2490756 L7.50161218,12.4468648 C7.22873435,12.7208688 7.22873435,13.167104 7.50161218,13.4450224 C7.77449001,13.7190265 8.21889104,13.7190265 8.49566712,13.4450224 L9.68853305,12.2472333 C10.0900533,11.8440559 10.2966608,11.3704203 10.2927625,10.8693843 C10.2888643,10.3800913 10.0783585,9.91819879 9.6846348,9.53850746 L7.7666935,7.61265038 C6.96365303,6.80629559 5.87214172,6.80238125 5.04181347,7.60090735 C4.87808678,7.75356675 4.7299531,7.9101405 4.58181942,8.0627999 C4.37521192,8.2780888 4.18029919,8.48163467 3.96979344,8.65778014 C3.96199693,8.66560882 3.95420042,8.67343751 3.94250565,8.6812662 C3.26031109,9.30364684 2.94845071,10.1178303 3.00692453,11.1042449 C3.08878788,12.3411775 3.54488368,13.4450224 3.93470915,14.2670346 L3.93470915,14.2709489 C4.96774664,16.4081806 6.42569389,18.2792368 8.27736486,19.8371456 C9.80937895,21.1132216 11.2439367,21.9782916 12.7915438,22.5537001 C13.360689,22.7650746 14.1910172,23.03125 15.1110053,23.03125 C15.2318512,23.03125 15.3565954,23.0273357 15.4813395,23.0155926 L15.4852378,23.0155926 C16.1674323,22.9568775 16.759967,22.6789591 17.2472489,22.1896661 L18.4401148,20.991877 C18.4440131,20.9879626 18.4479113,20.9840483 18.4518096,20.9801339 C19.2197657,20.1776935 19.2158675,19.0738486 18.4518096,18.2948942 Z" id="Shape" fill="#808080" fill-rule="nonzero"></path>
                        <path d="M18.0134541,14.1320307 C17.7528871,12.6034697 17.0300239,11.2092878 15.9247155,10.1006612 C14.8278124,9.00043324 13.4325182,8.2781462 11.8985351,8.01778692 C11.4866711,7.94639809 11.0958206,8.22355474 11.0243748,8.63509038 C10.952929,9.04662602 11.2303068,9.43716494 11.6421708,9.50855377 C12.8609519,9.71432159 13.9746657,10.293831 14.8572313,11.175693 C15.7397969,12.0575551 16.3197686,13.1703811 16.5257006,14.3881906 C16.588741,14.7577328 16.9081457,15.0180921 17.2695774,15.0180921 C17.3116043,15.0180921 17.3536313,15.0138928 17.3956582,15.0054941 C17.8075222,14.9341052 18.0848999,14.5435663 18.0134541,14.1320307 Z" id="Shape" fill="#808080" fill-rule="nonzero"></path>
                        <path d="M22.0209664,13.2063888 C21.6314668,10.9073655 20.543953,8.81278545 18.881831,7.15023668 C17.2197089,5.48768792 15.1256665,4.39989499 12.8272332,4.01029539 C12.4493029,3.94471922 12.0906547,4.19930906 12.0250954,4.57733639 C11.959536,4.95536372 12.2140605,5.31410394 12.5919908,5.37968011 C14.6050482,5.72299064 16.4407097,6.67191639 17.8984409,8.1300218 C19.3561721,9.58812722 20.3087107,11.42426 20.6480767,13.4378341 C20.7059232,13.7772872 20.999012,14.0164474 21.3306651,14.0164474 C21.3692294,14.0164474 21.4077937,14.0125899 21.4463581,14.0048751 C21.8320012,13.9431564 22.0865257,13.5844161 22.0209664,13.2063888 Z" id="Shape" fill="#808080" fill-rule="nonzero"></path>
                    </g>
                </g>
            </g>
        </g>
    </g>
</svg>